<!-- Generator: Adobe Illustrator 18.1.1, SVG Export Plug-In  -->
<svg version="1.1"
  xmlns="http://www.w3.org/2000/svg" xmlns:xlink="http://www.w3.org/1999/xlink" xmlns:a="http://ns.adobe.com/AdobeSVGViewerExtensions/3.0/"
  x="0px" y="0px" width="365px" height="406.9px" viewBox="0 0 365 406.9" enable-background="new 0 0 365 406.9"
  xml:space="preserve">
  <defs>
  </defs>
  <g>
    <path fill="#FFFFFF" d="M363.7,145.5c-1.9-7.2-7.1-14.5-10.6-18.9l0-0.2l-6-56.4c-7.9-1.9-37-19-37-19
      c-20.8-21.9-85.4-45.7-85.4-45.7s-54.9-12.2-98.2,19.8c-43.3,32-74.7,45.4-74.7,45.4s-2.6,78-0.9,91.3l-32.3,42.4
      c-1.4,1.8-2,4.1-1.8,6.3c1.2,12.1,8.9,49.8,57.5,39.3c0.1,0.5,0.2,0.7,0.2,0.7c35.9,91.6,127.9,136.4,127.9,136.4
      c63.8-16.8,129.4-153.5,131.3-159.1c0.1-0.2,0.2-0.5,0.3-0.9c0,0,0,0,0.1-0.1c15.1-12.8,9.3-34.4,9.3-34.4l-0.5-1.7
      c2.3-9.9,4.2-17.8,4.2-17.8l0.1-1.1c7,3.4,16.4,11,16.4,11S366.7,156.8,363.7,145.5z"/>
      <g id="_x39_jrS64.tif_2_">
        <g>
          <path fill="#0B0C0E" d="M200,10.1c21.6-0.4,41.6,4.4,59.5,14.8c11.1,6.4,21.5,13.7,31.9,20.9c14.3,9.9,28.8,19.6,46.2,25.3
            c1.9,0.6,3.8,1.2,6.1,2c-0.4,13-0.7,26-1.3,39c-0.1,2.1,0.6,3.7,2.2,5.3c2.9,2.8,5.4,5.8,8.4,9.1c0.3-3.1,0.7-6,0.8-8.9
            c0.3-11.1,0.5-22.2,0.8-33.4c0.1-5.3,0.3-10.6,0.4-15.9c0.1-2-0.5-3.1-3-3.7C334.2,60.5,319,52,304.6,42.1
            c-11-7.6-21.9-15.5-33.3-22.6C254.5,9,235.8,2.5,215,0.6c-0.5,0-1-0.4-1.6-0.6c-8.7,0-17.3,0-26,0c-4.8,0.8-9.6,1.4-14.4,2.3
            c-19.2,3.4-36,11.2-51.4,21.4c-11,7.3-21.6,15-32.5,22.4C77,54.4,63.6,60.9,48.6,64.4c-2.9,0.7-3.9,1.8-3.9,4.5
            c0,30.4,1.4,60.8,6,91c0.1,0.4,0.1,0.8,0.3,2.1c3.7-5,6.8-9.3,9.9-13.6c-0.9-8.9-2-17.7-2.6-26.6c-0.9-15.4-1.4-30.7-2.2-46.1
            c-0.1-2.2,1-3,3.2-3.7c4.6-1.5,9.2-3.2,13.6-5.1c16-7,29.5-17,43.3-26.7c4.7-3.3,9.8-6.2,14.6-9.3c1.5-1.7,2.9-3.4,4.6-5.4
            c0.4,0.6,0.7,1,1,1.5c6.1-3,12-6.2,18.2-8.8C168.9,12.3,184.2,9.9,200,10.1z"/>
            <path fill="#0B0C0E" d="M93.6,265.8c11.4,23.9,25.8,46.4,43.9,67c2.1,2.4,4.7,4.5,7.1,6.8c0.9,1.2,1.8,2.3,2.8,3.7
              c0.6-0.7,1-1.1,1.3-1.6c23.6-35.4,32.2-73.4,26.2-113.9c-0.9-5.7-2.2-11.4-3.4-17c-1.4-6.8-2.9-13.7-4.4-20.5
              c-27.4,3.3-50,12.8-67.4,30.9c-6.8,7.1-14.2,13.8-21.4,20.6c-0.9,0.8-1.9,1.9-3,2.2c-9.3,2.6-18.5,2.5-27.8-0.1
              c-14.8-4.3-21.3-14.5-25.1-26.6c-1.4-4.5-0.5-8.7,2.4-12.6c1.2-1.7,2.5-3.3,3.7-5c21.2-27.6,42.1-55.4,63.8-82.7
              c12.6-15.8,27-30.5,44.1-42.8c2.1-1.5,2.6-2.9,1.9-5.1c-1.9-5.8-3.7-11.7-5.4-17.5c-1.6-5.4-1.8-10.9,0.7-16.7
              c2.8,7.8,9.2,12.7,15.9,17.3c5.2,3.6,10.3,7.2,15.4,10.8c0.7,0.5,1.5,0.9,2.3,0.9c3.4,0.1,6.8,0,10.9,0
              c-1.9-5.9-3.6-11.6-5.5-17.3c-2.3-6.7-3.7-13.5-0.5-21c2.5,7.5,7.8,12.5,14.3,16.8c9.9,6.6,19.5,13.5,24.3,23.8
              c2.5-0.8,4.6-1.6,6.8-2.1c9.2-2.1,17.3,0.7,25,4.7c7.5,3.9,14.9,8.1,22.6,11.6c15.9,7.2,30.9,5.5,44.8-4.2
              c1.1-0.8,2.3-1.6,3.9-2.7c4,10.8,2.3,20.3-6.2,28.6c18,4.5,32.1,13,41.8,26.8c10.6,15.2,12.4,37.3,8.1,44.1
              c-7.6-5.5-16-9.2-26.8-10.2c5.7,11,7.6,21.9,7.6,33.2c0,11.4-2.3,22.3-11.2,32.2c3.1-0.7,5-1.1,7.1-1.6
              c-22.9,69.7-62.8,128.7-134,169.2c-1-0.5-1.8-1-2.7-1.5c-47.4-27.3-81.9-64-106-108.3c-6.3-11.6-11.9-22.6-16.9-35.7
              c-0.4-1-1.4-1-0.4-1c3.3,0.3,6.9-4.3,9.4-6.2C86.8,250.8,90,258.3,93.6,265.8z M201.5,191.2c-10.5-2.2-20.5-2.5-30.9-1.3
              c2,8.2,4,16.1,5.7,24c6,27.8,8.7,55.7,3.5,83.8c-3.2,17.2-9.5,33.5-17.8,49.2c-1.2,2.2-2.3,4.4-3.7,7
              c8.3,6.5,16.7,13.1,25.5,20.1c25.1-54,37.7-108.4,23-165.8c0.5,0,1-0.1,1.5-0.1c2.4,6.3,4.9,12.6,7.1,19
              c8.7,26.4,11.7,53.5,9.6,80.8c-1.6,20.9-4.4,41.6-6.6,62.5c2.9-2.2,6.3-4.7,9.5-7.3c22.2-17.7,40.5-38.1,55.4-60.7
              c14.9-22.6,26.1-46.5,34.3-71.5c0.9-2.8,0.4-6.2-0.4-9.1c-10-38.8-28.8-73.8-60.4-103.1c-6.9-6.4-15.2-11.6-23.1-17.6
              c1.9,0.6,3.7,1.1,5.4,1.8c16,6.8,28.6,17.2,39.4,29.2c20.8,23.3,36,49,44.5,77.6c0.5,1.8,0.8,3.7,2.2,5.8
              c1.2-2.7,2.9-5.4,3.7-8.2c3.1-10.9,1-21.7-1.9-32.4c-1.5-5.8-3.8-11.4-5.7-17.1c6-2.7,14.9-1.9,30,2.9
              c-1.4-14.4-7.5-26.8-18.6-37.2c-11.2-10.5-25.5-15.7-42.2-17.5c8.2-5.3,16.2-10.3,17.8-20.2c-2.2,1.1-3.7,1.9-5.3,2.6
              c-14.6,7-29,5.2-43-1.3c-6.7-3.1-13.1-6.8-19.6-10.2c-1.7-0.9-3.6-1.7-5.4-2.5c-11.6-4.8-17.4-4.1-27.3,3.6
              c-0.2-1.4-0.3-2.6-0.5-3.7c-1.2-6.7-5.2-12.1-11-16.5c-5.8-4.4-11.8-8.6-17.7-13c2.4,8.9,4.9,17.7,7.3,26.4
              c-8.4-0.2-15.9-0.9-23.2-0.4c-4.7,0.3-9.8,1.8-13.8,4c-17.6,9.4-31.1,22.7-43.9,36.5c-24.4,26.2-44.7,54.6-64.3,83.6
              c-2.3,3.4-4.4,7-7,10.2c-4.3,5.4-2.8,10.8-0.7,17.3c3.7-2.1,6.9-3.9,9.6-5.4c-1.4-3.1-2.8-5.3-3.2-7.6c-0.6-3.6,2.7-5.6,6.6-4.4
              c4.4,1.4,5.8,4.6,6.5,8.3c0.6,3.5-0.7,6.4-4.4,7.7c-4.3,1.5-8.9,2.4-13.5,3.5c2.8,4.4,6.7,8.7,13.1,11.5c1.4-2.3,2.6-4.4,3.9-6.5
              c4.9-7.9,11-15.1,19.2-20.7c1.3-0.8,2.8-1.4,4.4-1.9c2.7-0.7,5.5-0.6,6.9,1.9c1.4,2.5,0.1,4.7-2,6.2c-3,2.1-6.4,4-9.7,5.8
              c-7.7,4-12.7,9.6-15.7,17.1c7,2,13,0.6,18-3.5c4.3-3.4,8.1-7.3,11.9-11.2c11.8-12.2,25-23,40.7-31.3c18.3-9.7,39-16.5,67-14.2
              c2.6-18.8,10.7-35.3,27.9-47.8C209.4,149.3,199.3,168.6,201.5,191.2z M141.9,70c4.4-2,8.7-3.9,13-5.9
              c-6.8-5.4-13.6-10.8-20.6-16.3C136.8,55.1,139.4,62.6,141.9,70z M177.7,44c0,0.1,0.2,0.2,0.2,0.2c0.1-0.1,0.2-0.2,0.2-0.3
              c0-0.1-0.2-0.1-0.3-0.2C177.9,43.9,177.7,44,177.7,44z"/>
              <path fill="#0F6C37" d="M83.5,243.4c3.4,7.5,6.6,15,10.1,22.4c11.4,23.9,25.8,46.4,43.9,67c2.1,2.4,4.7,4.5,7.1,6.8
                c8.2-12,14.5-24.7,19.3-37.9c8.6-23.9,9.9-48.2,6.5-72.9c-0.8-5.9-1.5-11.8-2.7-17.7c-1.1-5.3-2.8-10.6-4.4-16.2
                c-10.4,1.4-20.1,4.1-29.4,7.9c-13.7,5.6-24.3,14.3-33.7,24.3C94.8,232.7,89,237.9,83.5,243.4z"/>
                <path fill="#0F6C37" d="M130.8,31c-4.9,3.1-9.9,6-14.6,9.3C102.3,49.9,88.8,60,72.9,67c-4.4,1.9-9,3.6-13.6,5.1
                  c-2.2,0.7-3.3,1.5-3.2,3.7c0.8,15.4,1.3,30.7,2.2,46.1c0.5,8.9,1.7,17.7,2.6,26.6c8.4-10.4,16.7-21,25.4-31.3
                  c13.8-16.4,28.3-32.3,46.2-45.5c0.8-0.6,1.2-2.1,0.9-3c-1.3-4.5-2.8-8.9-4.2-13.4C126.5,47,125.6,38.8,130.8,31z"/>
                  <path fill="#0F6C37" d="M200,10.1c-15.8-0.2-31.1,2.2-45.4,8.1c-6.3,2.6-12.2,5.9-18.2,8.8c1.2,7.7,5,14.2,12.1,19.2
                    c6.1,4.3,12.2,8.6,18.5,12.8c1.2,0.8,3.1,0.9,5.5,1.5c-1.1-3.5-2-6.3-2.9-9c-1-3-1.9-5.9-2.9-8.9c-3.2-9.6-0.7-18,7.4-26.2
                    c1.8,14.5,13.2,22.4,25.9,30.2C200,34.2,200,22.2,200,10.1z"/>
                    <path fill="#0B0C0E" d="M338.6,168.4c1.6,8,3.1,15.6,4.8,24.1c1.4-7,2.6-13.2,3.7-19.4c0.1-0.6-0.8-1.6-1.5-1.9
                      C343.4,170.2,341.1,169.3,338.6,168.4z"/>
                      <path fill="#0F6C37" d="M1.5,406.5c-0.5,0-1-0.1-1.5-0.1c0,0.1,0,0.3,0,0.4c0.5,0,1,0.1,1.5,0.1C1.5,406.8,1.5,406.6,1.5,406.5z"
                        />
                        <path fill="#8D8D8D" d="M192.1,177.8c-27.9-2.3-48.7,4.5-67,14.2c-15.7,8.3-28.9,19.1-40.7,31.3c-3.7,3.9-7.6,7.8-11.9,11.2
                          c-5,4-11,5.5-18,3.5c3-7.5,8-13.1,15.7-17.1c3.4-1.7,6.7-3.6,9.7-5.8c2.1-1.5,3.4-3.7,2-6.2c-1.5-2.5-4.2-2.6-6.9-1.9
                          c-1.5,0.4-3.1,1-4.4,1.9c-8.3,5.6-14.3,12.7-19.2,20.7c-1.3,2.1-2.6,4.2-3.9,6.5c-6.3-2.8-10.3-7-13.1-11.5
                          c4.6-1.2,9.2-2,13.5-3.5c3.7-1.3,5-4.2,4.4-7.7c-0.7-3.6-2.1-6.9-6.5-8.3c-3.9-1.2-7.2,0.8-6.6,4.4c0.4,2.3,1.8,4.4,3.2,7.6
                          c-2.7,1.5-5.9,3.3-9.6,5.4c-2.2-6.5-3.7-11.9,0.7-17.3c2.6-3.2,4.7-6.8,7-10.2c19.6-28.9,40-57.4,64.3-83.6
                          c12.8-13.8,26.3-27.1,43.9-36.5c4.1-2.2,9.1-3.6,13.8-4c7.4-0.5,14.8,0.2,23.2,0.4c-2.4-8.8-4.8-17.6-7.3-26.4
                          c5.9,4.3,11.9,8.6,17.7,13c5.8,4.4,9.8,9.8,11,16.5c0.2,1.1,0.3,2.3,0.5,3.7c9.8-7.7,15.7-8.4,27.3-3.6c1.8,0.8,3.7,1.6,5.4,2.5
                          c6.6,3.4,12.9,7.1,19.6,10.2c14,6.5,28.4,8.3,43,1.3c1.5-0.7,3-1.5,5.3-2.6c-1.5,9.9-9.5,14.9-17.8,20.2
                          c16.7,1.8,31,7.1,42.2,17.5c11.2,10.4,17.3,22.8,18.6,37.2c-15.1-4.8-24-5.5-30-2.9c1.9,5.7,4.1,11.4,5.7,17.1
                          c2.9,10.7,5,21.5,1.9,32.4c-0.8,2.8-2.4,5.4-3.7,8.2c-1.3-2.1-1.6-4-2.2-5.8c-8.5-28.6-23.7-54.3-44.5-77.6
                          c-10.8-12.1-23.4-22.4-39.4-29.2c-1.7-0.7-3.5-1.2-5.4-1.8c7.9,6,16.2,11.2,23.1,17.6c31.6,29.3,50.4,64.3,60.4,103.1
                          c0.8,2.9,1.3,6.3,0.4,9.1c-8.2,25-19.4,49-34.3,71.5c-14.9,22.7-33.2,43-55.4,60.7c-3.2,2.6-6.6,5-9.5,7.3
                          c2.3-20.8,5-41.6,6.6-62.5c2.1-27.4-0.9-54.4-9.6-80.8c-2.1-6.4-4.7-12.7-7.1-19c-0.5,0-1,0.1-1.5,0.1
                          c14.7,57.4,2.1,111.8-23,165.8c-8.9-7-17.2-13.5-25.5-20.1c1.4-2.6,2.5-4.8,3.7-7c8.3-15.8,14.6-32.1,17.8-49.2
                          c5.2-28.1,2.6-56-3.5-83.8c-1.7-7.9-3.8-15.8-5.7-24c10.3-1.2,20.4-0.9,30.9,1.3c-2.2-22.5,7.8-41.9,18.4-61.2
                          C202.8,142.4,194.7,159,192.1,177.8z M93.7,141.4c0.2-0.1,0.4-0.2,0.7-0.3c0.3-0.2,0.5-0.4,0.8-0.6c0.6-0.4,1.3-0.7,1.8-1.2
                          c3.5-3.5,8-4.9,13.3-4.2c9,1.1,14.4-2.5,17.7-9.6c3.7-8.1,10-14.8,17.3-20.7c-8.9,2.5-15.9,7.1-20.9,13.9
                          c-1.3,1.7-2.4,2.4-4.8,2.2c-13.5-0.8-14-0.5-19.7,10c-1.7,3.1-3.6,6.1-5.4,9.1c-0.2,0.2-0.4,0.5-0.6,0.7
                          C93.8,140.9,93.8,141.2,93.7,141.4z"/>
                          <path fill="#8D8D8D" d="M134.3,47.9c2.5,7.3,5,14.8,7.5,22.2c4.4-2,8.7-3.9,13-5.9C148.1,58.8,141.3,53.4,134.3,47.9z"/>
                          <path fill="#8D8D8D" d="M177.9,43.8c-0.1,0.1-0.2,0.2-0.2,0.2c0,0.1,0.2,0.2,0.2,0.2c0.1-0.1,0.2-0.2,0.2-0.3
                            C178.2,43.9,178,43.9,177.9,43.8z"/>
                            <path fill="#0B0C0E" d="M95.2,140.4c0.6-0.4,1.3-0.7,1.8-1.2c3.5-3.5,8-4.9,13.3-4.2c9,1.1,14.4-2.5,17.7-9.6
                              c3.7-8.1,10-14.8,17.3-20.7c-8.9,2.5-15.9,7.1-20.9,13.9c-1.3,1.7-2.4,2.4-4.8,2.2c-13.5-0.8-14-0.5-19.7,10
                              c-1.7,3.1-3.6,6.1-5.4,9.1C94.7,140.1,95,140.3,95.2,140.4z"/>
                              <path fill="#0B0C0E" d="M93.9,140.6c0,0.3-0.1,0.5-0.1,0.8c0.2-0.1,0.4-0.2,0.7-0.3C94.2,140.9,94.1,140.8,93.9,140.6z"/>
                              <path fill="#0B0C0E" d="M94.4,141.1c0.3-0.2,0.5-0.4,0.8-0.6c-0.2-0.2-0.5-0.3-0.7-0.5c-0.2,0.2-0.4,0.5-0.6,0.7
                                C94.1,140.8,94.2,140.9,94.4,141.1z"/>
                              </g>
                            </g>
                          </g>
                        </svg>
                        
