<!-- Generator: Adobe Illustrator 18.1.1, SVG Export Plug-In  -->
<svg version="1.1"
  xmlns="http://www.w3.org/2000/svg" xmlns:xlink="http://www.w3.org/1999/xlink" xmlns:a="http://ns.adobe.com/AdobeSVGViewerExtensions/3.0/"
  x="0px" y="0px" width="364.5px" height="386.3px" viewBox="0 0 364.5 386.3" enable-background="new 0 0 364.5 386.3"
  xml:space="preserve">
  <defs>
  </defs>
  <g id="j5HWU5.tif_2_">
    <g>
      <path fill="#020202" d="M0,193.4c0.7-0.7,0.4-1.7,0.5-2.5c0.9-8.2,1.8-16.4,2.6-24.7c0.1-0.6,0.1-1.2,0.9-1.3
        c5.3-0.9,9-4.1,12-8.2c5.2-7.3,10.4-14.5,15.8-21.7c0.4-0.6,0.4-1,0.3-1.7c-3.1-12-6.1-24.1-8.1-36.4c-1-6.3-1.9-12.6-1.8-19
        c0-1.5,0.5-2.5,1.8-3.3c9.8-6.4,20-12.4,30.3-18.1c0.5-0.3,1-0.6,1.7-1c-0.5-0.1-0.9-0.2-1.2-0.3c-0.2-0.1-0.4-0.2-0.4-0.4
        c-0.1-0.4,0.3-0.4,0.5-0.5c0.1-0.1,0.2-0.1,0.3-0.1c4.6-0.1,8.2-2.6,12-4.6c7.6-3.9,15.3-7.6,23.1-11.2c1-0.4,1.1-0.9,1-1.9
        c-1-6.8-2-13.6-3.1-20.8c1.9,2.3,3.5,4.2,5.1,6.2c2.6,3.2,5.3,6.4,7.9,9.8c0.9,1.2,1.6,1.2,2.8,0.6c1.5-0.8,3.1-1.5,4.7-2
        c1.5-0.5,1.8-1.2,1.5-2.6c-1.5-7.8-3.7-15.3-6.9-22.6c-0.2-0.4-0.9-0.9-0.3-1.4c0.5-0.4,0.9,0.3,1.3,0.5
        c7.5,5.4,15.1,10.6,22.3,16.3c1.9,1.5,3.1,1.2,4.9,0.5c17.3-6.8,34.7-13.3,52.5-18.7c2.7-0.8,5.4-1.5,8.1-2.3
        c0.9-0.3,1.7-0.1,2.6,0.1c10.3,2.7,20.4,6.1,30.5,9.7c30.2,10.9,60.1,22.7,88.9,37.1c5.8,2.9,11.5,6,17.2,9
        c10.3,5.5,20.2,11.6,30.1,17.7c2.4,1.5,3.1,3.2,3,5.8c-0.3,10.5-2.2,20.7-4.4,30.9c-3.3,15.3-7.3,30.3-11.8,45.3
        c-3.7,12.3-7.2,24.7-12.3,36.5c-0.3,0.6-0.2,1,0.1,1.6c6.4,11.4,12.9,22.9,19.3,34.3c0.6,1.1,1.6,1.9,2.4,2.9
        c0.2,0.3,1,0.6,0.4,1.1c-0.5,0.4-0.7-0.3-1-0.5c-5.8-5.3-11.9-10.4-18.1-15.3c-3.4-2.7-6.9-5.4-10.5-8.1
        c-2.1,3.9-4.1,7.6-6.2,11.4c-1.2,2.1-2.3,4.2-3.6,6.3c-0.6,1-0.7,1.9-0.4,3.1c2.7,10.5,5.9,20.9,7.7,31.6
        c1.4,8.1,2.1,16.3,2.7,24.5c0.2,3.5,0.5,7,0.6,10.5c0.1,1.5,0.4,2.9,0.6,4.3c0.1,0.3,0.5,0.9-0.1,1.1c-0.6,0.2-0.6-0.5-0.8-0.8
        c-2.7-5.1-5.4-10.3-8.2-15.4c-4.3-7.9-8.6-15.7-13.1-23.4c-1.8-3.1-3.5-6.1-5.3-9.3c-3.7,5.3-7.2,10.6-10.9,15.7
        c-12.8,18.2-26.5,35.9-40.6,53.1c-5.1,6.2-10.3,12.3-15.5,18.5c-13.3,15.9-27.2,31.3-41.3,46.4c-0.9,1-1.3,0.4-1.9-0.2
        c-6.7-7.3-13.4-14.5-20.1-21.9c-7.8-8.6-15.4-17.4-22.9-26.3c-10.1-11.9-19.9-24-29.5-36.3c-11.9-15.3-23.4-30.9-34.3-47.1
        c-7-10.4-13.7-21-19.9-32c-5-8.8-9.6-17.7-13.7-26.9c-0.2-0.5-0.4-1.2-1.3-0.9c-5.6,2-10.8,4.6-14.2,9.8c-0.7,1-1.2,2.1-1.9,3.1
        c-4.3-3.5-9-6.3-14.4-7.9c-4-1.2-8.2-1.4-12.4-2.1c-2.6-0.5-5.3-0.9-7.9-1.3C0,195.1,0,194.2,0,193.4z M219.1,332.6L219.1,332.6
        c0.2-0.1,0.5-0.2,0.4-0.5l-0.1,0c0.3,0.1,0.4-0.1,0.3-0.4l0,0.1c1.1-0.7,1.8-1.9,2.7-2.8c5-5.2,9.4-10.9,13.9-16.4l0,0
        c2-2.1,3.8-4.2,5.4-6.6l0,0c0.6-0.4,1-0.9,1.3-1.6l0,0c0.7-0.5,1.2-1.1,1.6-1.9l0,0.1c0.8-0.6,1.4-1.4,1.9-2.3
        c2.3-2.4,4.2-5.1,6.3-7.7c1.4-1.7,3-3.2,4-5.1c4.9-5.9,9.4-12,13.9-18.1c7.6-10.2,14.9-20.5,21.8-31.1c0.7-1,0.7-1.7,0.1-2.8
        c-7.3-11.9-14.9-23.7-22.7-35.2c-6.3-9.2-12.9-18.2-19.8-26.9c-8.3-10.4-17.2-20.1-26.3-29.7c-7.5-7.9-15-15.8-22.8-23.3
        c-3.2-3.1-6.5-6.1-10.1-8.7c-0.4-0.3-1.1-1.2-1.3,0.2c-0.7,4.7-2.1,9.2-3.6,13.6c-1.4,3.4-2.8,6.8-4.6,9.9
        c-0.5,0.9-0.5,1.6-0.1,2.5c1.5,3.2,2.9,6.4,4.3,9.6c5.4,12.5,10.1,25.3,14.1,38.4c3.9,12.9,7,25.9,9,39.3
        c2.1,14,2.1,28.2,1.2,42.3c-1.1,16.3-3.3,32.5-6.1,48.6c-2.4,14.1-5.2,28.2-8.5,42.1c-0.2,0.7-0.6,1.5-0.3,2.6
        c0.3-0.4,0.5-0.6,0.7-0.8c5.3-6.2,10.5-12.5,16-18.6c2.5-2.7,5-5.3,7.2-8.3C218.9,332.9,219,332.8,219.1,332.6z M74.1,83.9
        c-7.2,4.2-14.2,8.8-21.6,12.6c8-12.7,20.2-20.5,33.1-27.9c-5.6-0.3-10.7,0.7-15.7,2.1c-4.8,1.3-9.4,3-14.1,4.6
        c-5.1,1.7-10,3.6-14.3,7c-0.7,0.5-1.2,1-1.3,2c-0.2,5.7,0.6,11.4,1.4,17c0.7,5,2,9.9,3,14.9c0.1,0.4,0,0.9,0.5,1.1
        c0.5,0.2,0.7-0.4,0.9-0.7c1.6-2,3.1-3.9,4.6-5.9c4.7-6.4,9.8-12.5,15.5-18.1c2.8-2.8,5.5-5.6,8.3-8.4c0.4-0.2,0.9-0.4,1-1
        C74.8,83.4,74.4,83.5,74.1,83.9z M153.1,238c0.1-0.1,0.2-0.1,0.2-0.2c4.1-13.5,7.6-27.1,8.9-41.2c0.1-1.2,0.3-2.5,0-3.8
        c-3.1,3-6.1,5.9-9,8.9c-7.1,7.3-13.8,15-20.2,22.9c-8.6,10.7-16.5,22-22.7,34.4c-0.5,1.1-0.6,1.8,0.2,2.8
        c6.8,9.2,13.7,18.4,20.8,27.3c0.6,0.8,0.9,1.7,2,2.2c0.2-0.4,0.4-0.7,0.6-1.1c4.2-10.1,8.4-20.3,12.1-30.6
        c2.2-6,4.4-12.1,6.2-18.2C152.4,240.3,152.7,239.2,153.1,238z M318.3,149.2c-0.2,0.3-0.5,0.6-0.7,0.9c-0.8-0.1-1.3-0.5-2-0.9
        c-8.9-4.9-18.2-9.3-27.8-12.7c-12.2-4.3-24.7-7.2-37.3-9.7c-1.4-0.3-2.8-0.5-4.3-0.7c0.2,0.4,0.2,0.5,0.3,0.5
        c10.1,6.6,20,13.5,29.6,20.9c9.2,7,18.2,14.4,26.4,22.7c9.2,9.3,18,19,26.7,28.7c7.6,8.4,15,16.8,22.5,25.2c0.2-0.6-0.3-1-0.6-1.5
        c-6.2-9.2-12.5-18.5-18.7-27.7c-4-5.8-7.7-11.8-11.9-17.4c-7.1-9.5-15.6-17.7-24.6-25.4c-2.7-2.3-5.4-4.5-8.1-6.8
        c0.2-0.1,0.3-0.1,0.4-0.1c7.5,2,15,4.2,22.1,7.4c2.4,1.1,5,2,6.7,4.2c0.4-0.2-0.6-1.4,0.6-0.7c0.3,0.2,0.7,0.3,1,0.5
        c5.5,2.8,11,5.6,16.4,8.7c0.4,0.2,0.8,0.7,1.3,0.3c0.5-0.5-0.1-0.8-0.4-1.2c-1.6-2.1-3.1-4.2-4.8-6.2c-0.9-1.2-1.9-2.4-2.9-3.5
        c-1-1.2-2.1-2.2-2.9-3.5c-0.7-1.1-1.6-2.1-2.6-3c-0.8-0.7-1.5-1.7-2.3-2.5c-7.5-8.4-15.3-16.4-23.7-23.9
        c-6.8-6-13.7-11.8-20.8-17.5c-2.3-1.8-4.6-3.7-7-5.5c0-0.1,0.1-0.2,0.1-0.3c11.7,1.9,23.5,3.9,35.2,5.8c0.1-0.6-0.4-0.8-0.6-1.1
        c-7-8.5-14.8-16.3-23-23.6c-7.8-6.9-15.9-13.2-25.1-18.3c-4.6-2.6-9.4-4.8-14.6-6.4c10.5-6.7,22.3-8.7,34.2-10.6
        c-9.8-3.8-20.1-5.5-30.4-7c-10.3-1.5-20.7-1.9-31.1-1.5c0.1,0.4,0.3,0.5,0.6,0.6c5.9,0.5,11.7,1.8,17.4,3.2
        c3.5,0.9,7.2,1.4,10.4,3.1c0,0-0.1,0-0.1,0.1c0,0-0.1,0-0.1,0.1c0.1,0,0.2-0.1,0.2-0.1c2.9,0.1,5.5,1.4,8.6,2.4
        c-10.9,2.5-21.4,5-31.9,7.4c2.9,1.5,5.7,2.6,8.5,3.9c10.4,4.6,20.5,9.8,30.3,15.5c9,5.2,17.9,10.6,26,17.2
        c1.6,1.3,3.2,2.7,4.5,4.8c-22.2-7-44.4-9.5-67.2-4.2c0.8,0.3,1.4,0.6,2,0.8c7.3,2.8,14.4,6.2,21.3,9.9
        c13.6,7.2,26.6,15.4,39.3,23.9c4.6,3.1,9.1,6.3,13.7,9.5C304.3,138.6,311.4,143.8,318.3,149.2z M40.1,133.1
        c-2.4,1.2-3.4,3.3-4,5.8c-0.3,0.6-0.6,1.3-1.1,1.9c-4.9,7.2-9.9,14.2-14.6,21.5c-1.7,2.6-3.6,4.6-6.8,5.1
        c-0.5,0.1-0.9,0.4-1.3,0.4c-0.7,0.1-0.9,0.5-1,1.1c-1.5,6.7-3,13.3-4.6,20c-0.6,1.2-0.4,1.9,1.1,2.2c4.4,1,8.7,2.2,13.1,3.3
        c1.1,0.3,2.1,0.3,3.2,0.1c10.9-2.4,21.8-4.8,32.8-7.2c0.7-0.2,1.5-0.4,2.2-0.6c-0.2-0.6-0.4-1.3-0.5-1.9c-0.2-1.2-0.2-2.4,0.2-3.6
        c0.6-1.8,1.5-3.3,2.8-4.7c8.6-9.1,17.8-17.5,28.2-24.6c5.9-4,12.2-7.6,19.2-9.4c5.3-1.4,10.8-1.6,16.2-2c4.2-0.3,8.5-0.7,12.7-0.1
        c2.6,0.4,4.9-0.2,7-1.3c6.5-3.4,11.2-8.6,14.3-15.2c4.3-9.2,6.1-19,6.5-29c0.3-8.1-0.6-16.1-3.7-23.7c0.4-0.3,0.6-0.1,0.9,0
        c8.1,1.6,16.1,3.8,24,6.2c0.6,0.2,1.2,0.4,2,0.3c6-0.6,12.1-1.2,18.1-1.6c11.2-0.8,22.5-1.3,33.7-1c3.3,0.1,6.7,0,10,0.8
        c0.9,0.2,1.9,0,3.2,0c-1-0.4-1.6-0.7-2.3-1c-5-2.3-10-4.5-15.1-6.5c-5.8-2.5-11.7-4.6-17.6-6.6c-13.5-4.4-27.2-7.9-41.2-10.2
        c-12.8-2.1-25.5-4.5-38.6-4.2c-0.4,0-0.7-0.1-1.1-0.4c-2.3-2.5-4.7-5-7.1-7.5c-5.9-6.4-11.8-12.8-18-19.5
        c1.7,10.2,2.6,20-0.1,30.3c0.9-0.8,1.5-1.3,2.1-1.8c2.4-2,4.8-3.9,7.2-5.9c0.3-0.2,0.6-0.9,1-0.4c0.5,0.5-0.3,0.7-0.5,1.1
        c-0.2,0.3-0.6,0.6-0.9,0.9c-8.6,8.2-17.1,16.6-25.4,25.1c-5.3,5.5-10.7,11-15.9,16.5c-13.9,14.7-27.6,29.5-39.3,46l0,0
        c-0.1,0.2-0.3,0.4-0.4,0.5l0,0C40.4,132.7,40.3,132.9,40.1,133.1z M109.3,167.9c-0.5,0.1-0.9,0.1-1.3,0.3c-4.5,1.7-9,3.3-13.3,5.6
        c-2.6,1.4-5.3,2.7-6.9,5.3c-2.1,3.2-4.2,6.4-5.9,9.8c-1.3,2.6-3.1,4.1-5.9,4.7c-1.7,0.3-3.3,0.9-5,1.1c-1.8,0.2-1.8,0.3-1,2
        c4.8,9.8,10.1,19.2,15.8,28.5c4.3,7.1,8.9,14,13.5,20.9c0.7,1.1,1.1,1.1,1.9,0c5.9-7.9,11.9-15.7,18.2-23.4
        c4.7-5.7,9.5-11.4,14.7-16.7c7.8-7.9,16.4-14.9,25.8-20.8c2-1.2,2.6-2.4,2.5-4.8c-0.3-7-0.9-13.9-1.8-20.8c-0.1-1-0.4-1.7-1.7-0.9
        c-5.4,3.2-11.2,5.6-17.2,7.4c-8.4,2.4-16.9,3.4-25.6,2.7C113.8,168.8,111.5,168.4,109.3,167.9z M274.7,177.5
        c24.1,34,41.3,70.9,52.7,110.7c0.1-0.6,0.1-1.2,0-1.8c-1.2-8.4-2.7-16.7-4.6-25c-2.6-11.6-5.6-23.1-9.2-34.4
        c-4-12.5-8.5-24.7-14.4-36.4c-0.4-0.8-1-1.4-1.8-1.8c-4.7-2.3-9.4-4.7-14-7C280.6,180.3,277.7,179,274.7,177.5z M143.1,32.2
        c1.2,0.9,2.1,1.7,3,2.3c1.9,1.2,3.5,2.6,6.2,2.2c7.8-1.1,15.6-1.4,23.4-1.8c5.3-0.3,10.7-0.3,16-0.3c0.9,0,1.3-0.1,1.3-1.2
        c-0.1-5.6-0.1-11.1,0-16.7c0-1.4-0.6-1.5-1.6-1.2c-4.9,1.5-9.7,2.8-14.5,4.4c-8.3,2.7-16.5,5.6-24.6,8.7
        C149.2,29.9,146.3,31,143.1,32.2z M73.1,63.6c0,0.1,0,0.2,0.1,0.3c2.9-0.6,5.8-1.1,8.7-1.7c0.3-0.1,0.5-0.2,0.3-0.5
        c-0.2-0.3-2.9-1.4-3.2-1.2C77,61.5,75,62.6,73.1,63.6z"/>
        <path fill="#FDD503" d="M6.6,189c1.5-6.7,3.1-13.3,4.6-20c0.1-0.6,0.4-1,1-1.1c0.5-0.1,0.9-0.4,1.3-0.4c3.2-0.5,5.1-2.5,6.8-5.1
          c4.7-7.3,9.7-14.3,14.6-21.5c0.4-0.6,0.7-1.3,1.1-1.9c1.6-1.8,2.8-3.8,4-5.8c0.2-0.2,0.3-0.4,0.5-0.6l0,0c0.1-0.2,0.3-0.4,0.4-0.5
          l0,0c11.7-16.5,25.4-31.4,39.3-46c5.2-5.6,10.6-11.1,15.9-16.5c8.3-8.5,16.8-16.9,25.4-25.1c0.3-0.3,0.6-0.6,0.9-0.9
          c0.2-0.3,1-0.5,0.5-1.1c-0.4-0.4-0.7,0.2-1,0.4c-2.4,1.9-4.8,3.9-7.2,5.9c-0.6,0.5-1.2,1-2.1,1.8c2.7-10.2,1.8-20,0.1-30.3
          c6.2,6.7,12.1,13.1,18,19.5c2.3,2.5,4.7,5,7.1,7.5c0.3,0.4,0.6,0.5,1.1,0.4c13-0.3,25.8,2.1,38.6,4.2c14,2.3,27.7,5.8,41.2,10.2
          c5.9,2,11.9,4.1,17.6,6.6c-1.8,1.1-3.9,0.6-5.8,0.8c-5.6,0.5-11.3,0.6-17,1.1c-3.8,0.4-7.6,0.2-11.4,0.6c-2.4,0.3-4.9,0.2-7.3,0.4
          c-3.4,0.4-6.8,1-10.2,0.4c-6.7-1.2-13.3-2.4-20-3.9c-4.8-1.1-9.6-1.7-14.4-2.8c-0.9-0.2-1.2,0.1-1,1c0.4,1.3,0.7,2.5,1,3.8
          c0.8,3.2,1.8,6.3,2.2,9.6c0.9,6.7,1.9,13.4,1.4,20.2c-0.2,3.1-0.5,6.2-1.2,9.3c-1.2,5.5-3.1,10.8-5.4,16c-0.3,0.6-0.2,0.7,0.2,1.1
          c1.2,1,0.9,4.1-0.4,4c-2.2-0.1-3.9,0.9-5.8,1.6c-0.5,0.2-1.3,0.1-1.9,0c-2.9-0.7-5.9-0.7-8.9-0.8c-3.9-0.2-7.7-0.1-11.6,0.2
          c-5.5,0.4-10.9,1.3-16.2,2.6c-5.5,1.4-11,3.1-16,5.9c-5.6,3.1-10.7,7.1-15.3,11.5c-5.7,5.4-10.6,11.5-15.2,17.8
          c-2.2,2.9-4.1,6.1-6,9.2c-0.4,0.7-0.8,1.3-1.6,1.5c-1.5,0.3-3.1,0.6-4.6,1.1c-2.5,0.7-5.1,0.9-7.5,1.9c-0.3-3.7-0.6-7.3-0.9-11
          c-0.5,0.1-0.5,0.6-0.8,0.9c-0.3,0.4-0.5,0.8-0.8,1.2c-5.8,7-13.3,11.2-21.9,13.7c-0.5,0.2-1.4-0.1-1.4,0.8
          C9.6,188.5,8.2,189.1,6.6,189z M138.7,57.9c0.8-1.1,2-2,2.6-3.4c-1.8,0.6-3.1,1.9-4.5,2.9c-4.7,3.4-9.3,6.7-13.9,10.3
          c-5.2,4.2-10.5,8.3-15.8,12.4c-15.9,12.2-29.7,26.2-40.7,43c-0.4,0.6-1.2,1.4-0.7,1.8c0.5,0.5,1.1-0.5,1.5-1
          c6.3-6.4,12.6-12.8,18.8-19.2c0.8-0.8,1.6-1.2,2.7-1.2c4.6,0.1,9.1,0,13.7,0.1c1.3,0,1.8-0.3,2.2-1.6c1.6-5.1,4-9.7,6.7-14.3
          c3.8-6.3,8.9-11.4,14.3-16.4C130.3,67.3,134.7,62.7,138.7,57.9z M147.2,129.1c0.3,0,0.5-0.2,0.4-0.6c-0.1-0.5-0.3-1.1-0.9-1.1
          c-0.4,0-0.9,0.2-0.8,0.7C146.1,128.8,146.6,129,147.2,129.1z"/>
          <path fill="#FB9905" d="M256.8,287.5c-1,2-2.6,3.4-4,5.1c-2.1,2.6-3.9,5.3-6.3,7.7c-0.9,0.6-1.8,1.1-1.9,2.3l0-0.1
            c-0.8,0.4-1.7,0.8-1.6,1.9c0,0,0,0,0,0c-0.9,0.2-1.4,0.7-1.3,1.6l0,0c-0.8,0.2-1.3,0.8-1.7,1.4c-0.8,1-1.5,2.1-2.5,2.8
            c-0.9,0.6-1.2,1.3-1.1,2.3l0,0c-0.5-0.1-0.8,0.2-1.1,0.5c-1.3,1.6-2.7,3-4,4.5c-3.7,4.3-7.3,8.8-11.1,13c-0.3,0.3-0.6,0.7-0.4,1.3
            c0,0,0-0.1,0-0.1c-0.2,0-0.3,0.1-0.3,0.4l0.1,0c-0.4,0-0.4,0.3-0.4,0.6c0,0,0,0,0,0c-0.1,0.2-0.2,0.3-0.4,0.5
            c-2.2,2.9-4.7,5.6-7.2,8.3c-5.5,6-10.7,12.4-16,18.6c-0.2,0.2-0.3,0.4-0.7,0.8c-0.2-1.1,0.2-1.8,0.3-2.6c3.3-14,6.1-28,8.5-42.1
            c2.8-16.1,5-32.3,6.1-48.6c0.9-14.1,0.9-28.2-1.2-42.3c-2-13.3-5-26.4-9-39.3c-4-13.1-8.7-25.9-14.1-38.4
            c-1.4-3.2-2.8-6.4-4.3-9.6c-0.4-0.9-0.4-1.6,0.1-2.5c1.8-3.2,3.2-6.6,4.6-9.9c1.4,2.6,3.3,4.8,4.9,7.2c4.1,6.1,8.2,12.4,11.9,18.7
            c3.6,6.2,7.2,12.5,10.5,18.9c2.4,4.8,4.9,9.6,7.2,14.4c2.5,5.2,5,10.5,7.2,15.9c2.4,5.9,4.9,11.8,7.3,17.8
            c2.2,5.6,4.3,11.2,6.3,16.8c2.1,6,4.2,12,6.1,18.1c1.8,5.5,3.4,11,5,16.5C254.1,275.7,255.7,281.5,256.8,287.5z"/>
            <path fill="#FDD503" d="M256.8,287.5c-1.1-5.9-2.7-11.8-4.4-17.6c-1.6-5.5-3.2-11.1-5-16.5c-2-6-4-12.1-6.1-18.1
              c-2-5.6-4.1-11.3-6.3-16.8c-2.3-6-4.8-11.9-7.3-17.8c-2.2-5.4-4.7-10.7-7.2-15.9c-2.3-4.8-4.8-9.6-7.2-14.4
              c-3.3-6.4-6.9-12.7-10.5-18.9c-3.7-6.4-7.7-12.6-11.9-18.7c-1.6-2.4-3.5-4.6-4.9-7.2c1.4-4.5,2.9-9,3.6-13.6
              c0.2-1.4,0.9-0.4,1.3-0.2c3.6,2.6,6.9,5.6,10.1,8.7c7.9,7.5,15.3,15.4,22.8,23.3c9.1,9.6,18.1,19.3,26.3,29.7
              c7,8.7,13.5,17.7,19.8,26.9c7.9,11.5,15.4,23.3,22.7,35.2c0.7,1.1,0.6,1.7-0.1,2.8c-7,10.6-14.3,20.9-21.8,31.1
              C266.2,275.5,261.7,281.6,256.8,287.5z"/>
              <path fill="#F15A24" d="M109.3,167.9c2.2,0.5,4.5,0.9,6.8,1.1c8.7,0.7,17.2-0.3,25.6-2.7c6-1.7,11.8-4.2,17.2-7.4
                c1.3-0.8,1.5-0.1,1.7,0.9c0.9,6.9,1.5,13.8,1.8,20.8c0.1,2.3-0.5,3.5-2.5,4.8c-9.4,5.9-18,12.9-25.8,20.8
                c-5.2,5.3-10,10.9-14.7,16.7c-6.3,7.6-12.3,15.4-18.2,23.4c-0.8,1.1-1.2,1-1.9,0c-4.6-6.9-9.2-13.8-13.5-20.9
                c-5.7-9.3-11-18.7-15.8-28.5c-0.8-1.6-0.8-1.8,1-2c1.7-0.2,3.4-0.8,5-1.1c2.8-0.6,4.6-2.1,5.9-4.7c1.7-3.4,3.8-6.6,5.9-9.8
                c1.6-2.6,4.3-3.9,6.9-5.3c4.3-2.2,8.8-3.9,13.3-5.6C108.5,168,108.9,168,109.3,167.9z"/>
                <path fill="#FB9905" d="M242,42.5c-3.3-1.7-6.9-2.3-10.4-3.1c-5.7-1.4-11.5-2.7-17.4-3.2c-0.3,0-0.5-0.2-0.6-0.6
                  c10.4-0.4,20.8-0.1,31.1,1.5c10.3,1.5,20.6,3.2,30.4,7c-11.9,1.8-23.7,3.9-34.2,10.6c5.2,1.6,9.9,3.8,14.6,6.4
                  c9.1,5,17.3,11.4,25.1,18.3c8.2,7.3,16,15,23,23.6c0.3,0.3,0.7,0.5,0.6,1.1c-11.7-1.9-23.5-3.9-35.2-5.8c0,0.1-0.1,0.2-0.1,0.3
                  c2.3,1.8,4.7,3.6,7,5.5c7.1,5.7,14,11.5,20.8,17.5c8.4,7.5,16.2,15.5,23.7,23.9c0.8,0.8,1.4,1.8,2.3,2.5c1,0.9,1.9,1.8,2.6,3
                  c0.8,1.3,1.9,2.3,2.9,3.5c1,1.2,2,2.3,2.9,3.5c1.6,2.1,3.2,4.1,4.8,6.2c0.2,0.3,0.9,0.7,0.4,1.2c-0.4,0.4-0.9-0.1-1.3-0.3
                  c-5.4-3-10.9-5.9-16.4-8.7c-0.3-0.2-0.7-0.3-1-0.5c-1.2-0.6-0.3,0.5-0.6,0.7c-1.7-2.2-4.2-3.1-6.7-4.2c-7.1-3.2-14.6-5.4-22.1-7.4
                  c-0.1,0-0.2,0-0.4,0.1c2.7,2.3,5.4,4.5,8.1,6.8c9,7.7,17.5,15.9,24.6,25.4c4.2,5.6,8,11.6,11.9,17.4c6.3,9.2,12.5,18.5,18.7,27.7
                  c0.3,0.4,0.9,0.8,0.6,1.5c-7.5-8.4-15-16.8-22.5-25.2c-8.8-9.7-17.5-19.4-26.7-28.7c-8.2-8.3-17.1-15.6-26.4-22.7
                  c-9.6-7.3-19.5-14.3-29.6-20.9c-0.1,0-0.1-0.2-0.3-0.5c1.6,0.3,2.9,0.4,4.3,0.7c12.6,2.5,25.2,5.4,37.3,9.7
                  c9.6,3.4,18.8,7.8,27.8,12.7c0.6,0.3,1.2,0.8,2,0.9c0.4,0.7,1.2,0.9,1.9,1.2c0.4,0.5,0.9,0.7,1.5,0.8c0.2,0.4,0.5,0.7,0.9,0.6
                  c0.2,0,0.3-0.3,0.2-0.5c-0.1-0.5-0.3-0.8-0.9-0.8c-0.5-0.4-1-0.8-1.4-1.2c-0.4-0.5-1-0.7-1.5-1.1c-6.9-5.4-14-10.6-21.2-15.6
                  c-4.5-3.2-9.1-6.4-13.7-9.5c-12.7-8.6-25.8-16.7-39.3-23.9c-6.9-3.7-14-7-21.3-9.9c-0.6-0.2-1.2-0.5-2-0.8
                  c22.9-5.3,45-2.8,67.2,4.2c-1.3-2.1-2.9-3.4-4.5-4.8c-8-6.7-17-12-26-17.2c-9.8-5.7-19.9-10.9-30.3-15.5c-2.8-1.2-5.6-2.4-8.5-3.9
                  c10.5-2.4,21-4.8,31.9-7.4C247.5,43.9,244.9,42.6,242,42.5L242,42.5z"/>
                  <path fill="#FB9905" d="M6.6,189c1.6,0.1,3-0.5,4.4-1c0.3,0,0.6,0.1,0.9,0c8-1.6,16-3.2,24-4.7c0.6-0.1,0.8-0.4,0.8-0.9
                    c2.4-1,5-1.2,7.5-1.9c1.5-0.4,3-0.7,4.6-1.1c0.9-0.2,1.2-0.8,1.6-1.5c1.9-3.1,3.8-6.2,6-9.2c4.6-6.3,9.5-12.4,15.2-17.8
                    c4.7-4.4,9.7-8.4,15.3-11.5c5-2.8,10.4-4.5,16-5.9c5.3-1.3,10.7-2.2,16.2-2.6c3.9-0.3,7.7-0.3,11.6-0.2c2.9,0.1,5.9,0.1,8.9,0.8
                    c0.6,0.1,1.3,0.2,1.9,0c1.9-0.7,3.6-1.7,5.8-1.6c1.3,0.1,1.6-3,0.4-4c-0.4-0.4-0.5-0.5-0.2-1.1c2.3-5.2,4.2-10.5,5.4-16
                    c0.7-3,0.9-6.2,1.2-9.3c0.5-6.8-0.4-13.5-1.4-20.2c-0.5-3.2-1.5-6.4-2.2-9.6c-0.3-1.3-0.7-2.5-1-3.8c-0.2-0.9,0.1-1.2,1-1
                    c4.8,1.1,9.6,1.8,14.4,2.8c6.6,1.5,13.3,2.7,20,3.9c3.3,0.6,6.8,0,10.2-0.4c2.4-0.3,4.9-0.2,7.3-0.4c3.8-0.4,7.6-0.2,11.4-0.6
                    c5.7-0.6,11.3-0.6,17-1.1c1.9-0.2,4,0.3,5.8-0.8c5.1,1.9,10.2,4.1,15.1,6.5c0.7,0.3,1.3,0.6,2.3,1c-1.3,0-2.3,0.2-3.2,0
                    c-3.3-0.8-6.6-0.7-10-0.8c-11.3-0.4-22.5,0.1-33.7,1c-6,0.5-12.1,1-18.1,1.6c-0.7,0.1-1.3-0.1-2-0.3c-7.9-2.4-15.9-4.6-24-6.2
                    c-0.3-0.1-0.6-0.2-0.9,0c3.1,7.6,4,15.5,3.7,23.7c-0.4,10.1-2.2,19.8-6.5,29c-3.1,6.6-7.8,11.8-14.3,15.2c-2.1,1.1-4.4,1.7-7,1.3
                    c-4.2-0.6-8.5-0.2-12.7,0.1c-5.4,0.4-10.9,0.6-16.2,2c-7,1.8-13.3,5.4-19.2,9.4c-10.4,7.1-19.6,15.5-28.2,24.6
                    c-1.3,1.3-2.2,2.9-2.8,4.7c-0.4,1.2-0.4,2.4-0.2,3.6c0.1,0.7,0.3,1.3,0.5,1.9c-0.7,0.2-1.5,0.4-2.2,0.6
                    c-10.9,2.4-21.8,4.8-32.8,7.2c-1.1,0.2-2.1,0.2-3.2-0.1c-4.3-1.2-8.7-2.3-13.1-3.3C6.2,190.9,6,190.2,6.6,189z"/>
                    <path fill="#FB9905" d="M274.7,177.5c3,1.4,5.9,2.8,8.7,4.2c4.7,2.3,9.3,4.7,14,7c0.9,0.4,1.4,1,1.8,1.8
                      c5.9,11.7,10.4,24,14.4,36.4c3.6,11.3,6.6,22.8,9.2,34.4c1.8,8.3,3.4,16.6,4.6,25c0.1,0.6,0.1,1.2,0,1.8
                      C316,248.4,298.8,211.5,274.7,177.5z"/>
                      <path fill="#F15A24" d="M74.4,84.2c-2.8,2.8-5.5,5.6-8.3,8.4c-5.6,5.6-10.7,11.7-15.5,18.1c-1.5,2-3.1,4-4.6,5.9
                        c-0.2,0.3-0.4,0.9-0.9,0.7c-0.5-0.2-0.4-0.7-0.5-1.1c-1-5-2.4-9.9-3-14.9c-0.8-5.6-1.6-11.3-1.4-17c0-1,0.6-1.5,1.3-2
                        c4.3-3.4,9.2-5.3,14.3-7c4.7-1.6,9.4-3.3,14.1-4.6c5-1.4,10-2.4,15.7-2.1c-12.9,7.5-25.1,15.2-33.1,27.9
                        c7.4-3.8,14.4-8.5,21.6-12.6C74.2,84,74.3,84.1,74.4,84.2z"/>
                        <path fill="#F15A24" d="M143.1,32.2c3.2-1.2,6.2-2.4,9.2-3.5c8.1-3.1,16.4-6,24.6-8.7c4.8-1.6,9.7-3,14.5-4.4
                          c1-0.3,1.6-0.2,1.6,1.2c-0.1,5.6-0.1,11.1,0,16.7c0,1.1-0.4,1.2-1.3,1.2c-5.3,0-10.7,0-16,0.3c-7.8,0.4-15.7,0.7-23.4,1.8
                          c-2.7,0.4-4.3-1-6.2-2.2C145.1,33.9,144.3,33.2,143.1,32.2z"/>
                          <path fill="#FB9905" d="M162.1,192.8c-3.1,3-6.1,5.9-9,8.9c-7.1,7.3-13.8,15-20.2,22.9c-8.6,10.7-16.5,22-22.7,34.4
                            c-0.5,1.1-0.6,1.8,0.2,2.8c6.8,9.2,13.7,18.4,20.8,27.3c0.6,0.8,0.9,1.7,2,2.2c0.2-0.4,0.4-0.7,0.6-1.1
                            c4.2-10.1,8.4-20.3,12.1-30.6c2.2-6,4.4-12.1,6.2-18.2c0.3-1.2,0.7-2.3,1-3.5c0.1-0.1,0.2-0.1,0.2-0.2c4.1-13.5,7.6-27.1,8.9-41.2
                            C162.2,195.4,162.4,194.1,162.1,192.8z"/>
                            <path fill="#FDD503" d="M219.8,331.8c-0.2-0.5,0.1-0.9,0.4-1.3c3.9-4.2,7.4-8.7,11.1-13c1.3-1.5,2.7-3,4-4.5
                              c0.3-0.3,0.6-0.6,1.1-0.5c-4.5,5.6-8.9,11.2-13.9,16.4C221.6,329.9,220.9,331.1,219.8,331.8z"/>
                              <path fill="#F15A24" d="M73.1,63.6c2-1,3.9-2.1,5.9-3.1c0.4-0.2,3.1,0.8,3.2,1.2c0.2,0.3,0,0.5-0.3,0.5c-2.9,0.6-5.8,1.1-8.7,1.7
                                C73.1,63.8,73.1,63.7,73.1,63.6z"/>
                                <path fill="#C00101" d="M40.1,133.1c-1.2,2-2.4,4-4,5.8C36.6,136.4,37.7,134.3,40.1,133.1z"/>
                                <path fill="#FDD503" d="M236.4,312.6c0-1,0.2-1.7,1.1-2.3c1-0.7,1.7-1.9,2.5-2.8c0.5-0.6,0.9-1.3,1.7-1.4
                                  C240.2,308.3,238.3,310.5,236.4,312.6z"/>
                                  <path fill="#C00101" d="M318.3,149.2c0.5,0.4,1.1,0.6,1.5,1.1c-0.3,0.2-0.3,0.6-0.3,0.9c-0.7-0.3-1.5-0.4-1.9-1.2
                                    C317.8,149.8,318.1,149.5,318.3,149.2z"/>
                                    <path fill="#FDD503" d="M243.1,304.5c-0.1-1.2,0.7-1.5,1.6-1.9C244.3,303.3,243.8,303.9,243.1,304.5z"/>
                                    <path fill="#FDD503" d="M244.6,302.6c0.1-1.2,1-1.7,1.9-2.3C246,301.1,245.4,302,244.6,302.6z"/>
                                    <path fill="#FDD503" d="M241.8,306c-0.1-0.9,0.4-1.4,1.3-1.6C242.9,305.1,242.4,305.6,241.8,306z"/>
                                    <path fill="#C00101" d="M74.1,83.9c0.3-0.4,0.7-0.5,1.3-0.8c-0.1,0.7-0.5,0.8-1,1C74.3,84.1,74.2,84,74.1,83.9z"/>
                                    <path fill="#FB9905" d="M242,42.5c-0.1,0-0.2,0.1-0.2,0.1c0,0,0.1-0.1,0.1-0.1C241.9,42.6,242,42.6,242,42.5L242,42.5z"/>
                                    <path fill="#FDD503" d="M219.1,332.7c0-0.3,0-0.6,0.4-0.6C219.6,332.4,219.4,332.6,219.1,332.7z"/>
                                    <path fill="#FDD503" d="M218.8,333.1c0.1-0.2,0.2-0.3,0.4-0.5C219,332.8,218.9,332.9,218.8,333.1z"/>
                                    <path fill="#FDD503" d="M219.5,332.1c0-0.2,0.1-0.3,0.3-0.4C219.8,332,219.7,332.2,219.5,332.1z"/>
                                    <path fill="#C00101" d="M40.6,132.5L40.6,132.5L40.6,132.5z"/>
                                    <path fill="#C00101" d="M41,131.9L41,131.9L41,131.9z"/>
                                    <path fill="#020202" d="M138.7,57.9c-4.1,4.8-8.4,9.3-13,13.6c-5.4,5-10.5,10-14.3,16.4c-2.7,4.5-5.2,9.2-6.7,14.3
                                      c-0.4,1.2-1,1.6-2.2,1.6c-4.6-0.1-9.1,0-13.7-0.1c-1.2,0-1.9,0.4-2.7,1.2c-6.2,6.4-12.5,12.8-18.8,19.2c-0.4,0.4-1,1.4-1.5,1
                                      c-0.5-0.4,0.3-1.2,0.7-1.8c11-16.8,24.8-30.8,40.7-43c5.3-4.1,10.6-8.2,15.8-12.4c4.5-3.6,9.2-7,13.9-10.3
                                      C137.4,57.6,138.1,57.8,138.7,57.9z"/>
                                      <path fill="#020202" d="M36.8,182.4c-0.1,0.5-0.2,0.8-0.8,0.9c-8,1.6-16,3.1-24,4.7c-0.3,0.1-0.6,0-0.9,0c0.1-1,0.9-0.7,1.4-0.8
                                        c8.6-2.5,16.1-6.7,21.9-13.7c0.3-0.4,0.5-0.8,0.8-1.2c0.2-0.3,0.2-0.8,0.8-0.9C36.2,175.1,36.5,178.7,36.8,182.4z"/>
                                        <path fill="#C00101" d="M138.7,57.9c-0.7-0.2-1.3-0.3-2-0.5c1.5-1,2.8-2.3,4.5-2.9C140.7,55.9,139.6,56.8,138.7,57.9z"/>
                                        <path fill="#FB9905" d="M147.2,129.1c-0.7-0.1-1.2-0.3-1.3-0.9c-0.1-0.6,0.4-0.7,0.8-0.7c0.7,0,0.8,0.6,0.9,1.1
                                          C147.7,128.9,147.5,129.1,147.2,129.1z"/>
                                          <path fill="#020202" d="M319.5,151.2c0-0.4,0-0.7,0.3-0.9c0.5,0.4,1,0.8,1.4,1.2c-0.1,0.2-0.2,0.4-0.3,0.6
                                            C320.4,152,319.9,151.7,319.5,151.2z"/>
                                            <path fill="#C00101" d="M321,152.1c0.1-0.2,0.2-0.4,0.3-0.6c0.6-0.1,0.8,0.2,0.9,0.8c0,0.2,0,0.5-0.2,0.5
                                              C321.5,152.7,321.2,152.4,321,152.1z"/>
                                            </g>
                                          </g>
                                        </svg>
                                        
