<!-- Generator: Adobe Illustrator 18.1.1, SVG Export Plug-In  -->
<svg version="1.1"
  xmlns="http://www.w3.org/2000/svg" xmlns:xlink="http://www.w3.org/1999/xlink" xmlns:a="http://ns.adobe.com/AdobeSVGViewerExtensions/3.0/"
  x="0px" y="0px" width="321.5px" height="398.9px" viewBox="0 0 321.5 398.9" enable-background="new 0 0 321.5 398.9"
  xml:space="preserve">
  <defs>
  </defs>
  <g id="uoRxOJ.tif_2_">
    <g>
      <path fill="#0A0B0C" d="M161.1,0c15.1,13.1,31.1,24.9,47.8,35.8c29.8,19.4,61.2,35.5,95.4,45.7c5,1.5,10,2.7,15.1,4
        c1.3,0.3,2,0.7,2,2.4c0.8,54.9-5.4,108.8-25.2,160.5c-8.2,21.4-18.6,41.5-31.5,60.4c-26.4,38.7-61,68.1-102.3,89.7
        c-1.8,0.9-2.8,0.2-4.2-0.5C91.3,362.9,46.2,309.1,21.4,238c-9.9-28.4-15.7-57.6-18.8-87.5C0.5,129.9-0.2,109.2,0,88.4
        c0-1.9,0.5-2.7,2.3-3.1c37.2-8.6,71-25,103.2-45.1c18.6-11.6,36.1-24.6,52.9-38.4c0.7-0.6,1.3-1.2,1.9-1.8
        C160.6,0,160.9,0,161.1,0z M21.3,187c1.7,8.6,3.5,17.2,6.1,25.5c2.4,9.2,5.2,18.2,8.5,27c14.4,38.7,35.6,73.1,65.5,101.8
        c14.1,13.5,29.4,25.5,46.3,35.3c3.6,2.7,7.8,4.6,11.6,7c0.9,0.6,1.8,0.6,2.8,0c3.8-2.4,8-4.2,11.6-7c0.9-0.5,1.8-0.9,2.6-1.4
        c41.8-26,73.8-61.1,95.9-105.1c9.3-18.5,16.6-37.7,21.8-57.7c2.6-8.4,4.7-16.9,6.1-25.6c0-0.1,0.1-0.2,0.1-0.3
        c5.9-29.2,8.1-58.8,8.1-88.5c0-1.6-0.7-2-2.1-2.4c-4.1-1.1-8.1-2.3-12.1-3.6c-38.7-12.5-73.8-31.9-106.9-55.1
        c-4.5-3.2-9-6.3-13.5-9.5c-3.9-3.2-7.9-6.3-11.8-9.6c-1-0.9-1.7-0.5-2.6,0.2c-3.8,3.1-7.7,6.2-11.6,9.3c-4.9,3.5-9.7,7-14.6,10.4
        C97.1,62.8,58.7,83.5,16.1,95.3c-2.5,0.7-2.9,1.8-2.9,4.1c0,16.1,0.7,32.1,2.3,48.1c1.3,13,2.9,26,5.8,38.8
        C21.2,186.6,21.2,186.8,21.3,187z"/>
        <path opacity="0.43" fill="#0027E8" d="M21.3,186.4c-2.9-12.8-4.5-25.8-5.8-38.8c-1.6-16-2.3-32.1-2.3-48.1c0-2.3,0.4-3.4,2.9-4.1
          c42.6-11.9,80.9-32.5,117.1-57.7c4.9-3.4,9.7-6.9,14.6-10.4c0,26.3,0,52.5,0.1,78.8c-23.1-1.7-43.5,5.3-61.7,19
          c-8.5,6.3-15.9,13.7-20.9,23.3c-0.1,0.1-0.4,0.4-0.4,0.4c0.3,0.4,0.5,0.2,0.7-0.1c1.6-0.6,3.3-1.3,4.9-1.9c5-1.8,10-4.1,15.5-4.3
          l0,0c-0.2,0.2-0.4,0.5-0.7,0.7c-14.8,10.5-25.9,23.8-31.3,41.4c-0.4,1.4-1.2,1.9-2.4,2.3c-9.7,0-19.3,0-29,0
          C22.1,186.6,21.7,186.5,21.3,186.4z"/>
          <path opacity="0.43" fill="#0027E8" d="M294,212.5c-5.1,20-12.5,39.2-21.8,57.7c-22.1,44-54.1,79-95.9,105.1
            c-0.8,0.5-1.7,1-2.6,1.4c0-3.4-0.1-6.9-0.1-10.3c0-23.9,0-47.8-0.1-71.7c1.1-1.1,2.1-2.3,3.2-3.4c12.2-11.6,24.4-23.1,36.7-34.6
            c1.9-1.7,2.2-2.8,0.8-5.2c-7.1-12.1-12.5-24.9-13.8-39.1c11.7-0.1,23.3-0.1,35-0.2c1.6,0.6,2.2,1.8,2.3,3.6
            c0.4,5.1,1.9,9.9,4.3,14.5c1.3,2.3,3,3.3,5.6,3.3c5.6,0,10.8-2.3,16.2-2.9c5.7-0.7,8.3-4,9-8.5c0.8-5.1,3.6-7.8,7.7-9.9
            C285.1,212.4,289.6,212.4,294,212.5z"/>
            <path opacity="0.43" fill="#0027E8" d="M173.7,27.4c4.5,3.2,9,6.3,13.5,9.5c33.1,23.2,68.3,42.6,106.9,55.1c4,1.3,8,2.5,12.1,3.6
              c1.4,0.4,2.1,0.8,2.1,2.4c0,29.8-2.2,59.3-8.1,88.5c0,0.1-0.1,0.2-0.1,0.3c-0.5,0-1-0.1-1.6-0.1l0-0.2l-0.1,0.2
              c-4.4,0-8.8,0-13.1,0l-0.1-0.2l-0.1,0.2c-0.8,0-1.7,0-2.5,0c-1.1-0.3-1.8-1-2.3-2.1c-10.9-22.6-26.7-41.2-47-55.9
              c-2.7-1.9-5.4-3.9-8.5-6.2c11,0.8,20.2,5.3,29.9,8.3c-11.2-13.1-24.3-23.4-40.3-29.8c-6.9-2.8-6.9-2.8-5.9-10.4
              c0-0.2,0.1-0.4,0.1-0.7c0.4-4.9,1.9-9.7,2.9-15.1c-7.2,2.9-14.7,5-17.7,12.4c-2.4,5.8-5.4,8.2-11.7,6.8c-2-0.5-2.9-1-3-3
              c-0.1-6.5-0.3-13.1,0.2-19.6c0.1-2,1.5-4.8-0.1-5.9c-1.4-1-3.3,1.5-5.1,2.2c-0.1,0-0.2,0-0.3,0C173.7,54.4,173.7,40.9,173.7,27.4z
              "/>
              <path opacity="0.43" fill="#0027E8" d="M147.7,376.7c-16.9-9.8-32.2-21.8-46.3-35.3c-29.9-28.7-51.1-63.1-65.5-101.8
                c-3.3-8.9-6.1-17.9-8.5-27c10.4,0,20.8-0.1,31.2-0.1c-0.2,1.1-0.4,2.2-0.6,3.3c-3,13.7-4.8,27.5-2.7,41.5
                c1.3,8.7,4.1,16.9,9.1,24.8c0.8-6.8,1.4-13,2.2-19.2c0.8-6.2,2-12.3,4.1-18.3c3.5,16.3,11.3,30.2,22.4,42.4
                c9.8,10.8,21,20,35.6,23.2c6.9,1.5,13.3,3.8,19.3,7.4c0,2.4-0.1,4.9-0.1,7.3C147.8,342.1,147.7,359.4,147.7,376.7z"/>
                <path fill="#0000FF" d="M147.7,376.7c0-17.3,0.1-34.5,0.1-51.8c0-2.4,0-4.9,0.1-7.3c1.3,0.1,2-0.8,2.8-1.5
                  c2.4-2.3,4.7-4.7,7.2-6.8c5.4-4.7,10.1-10.1,15.8-14.5c0,23.9,0,47.8,0.1,71.7c0,3.4,0.1,6.9,0.1,10.3c-3.6,2.8-7.8,4.6-11.6,7
                  c-1,0.6-1.9,0.6-2.8,0C155.5,381.3,151.3,379.4,147.7,376.7z"/>
                  <path fill="#0000FF" d="M173.7,27.4c0,13.5,0,27,0.1,40.4c-6.3,4.1-11.6,9-13.9,16.6c-1.8,5.7-3.5,11.4-4.5,17.3
                    c-1,6.1-1,6.1-7.5,4.3c0-26.3,0-52.5-0.1-78.8c3.9-3.1,7.7-6.2,11.6-9.3c0.9-0.7,1.5-1,2.6-0.2C165.8,21.1,169.8,24.2,173.7,27.4z
                    "/>
                    <path fill="#0000FF" d="M58.6,212.4c-10.4,0-20.8,0.1-31.2,0.1c-2.6-8.4-4.4-16.9-6.1-25.5c0.4-0.1,0.8-0.2,1.1-0.2
                      c9.7,0,19.3,0,29,0c2.1,0.1,1.3,1.4,1.1,2.5c-0.6,3.1-1.9,6.2-0.9,9.8c2-1.8,3.8-3.3,5.5-4.8c1.8-1.5,3.6-3,5.4-4.4
                      c1.7-1.2,3.1-3.3,6.1-2.8C64.1,195.4,61.2,203.9,58.6,212.4z"/>
                      <path fill="#0000FF" d="M282.6,186.7c0.8,0,1.7,0,2.5,0c0,0,0.2,0,0.2,0c4.4,0,8.8,0,13.1,0c0,0,0.1,0,0.1,0c0.5,0,1,0.1,1.6,0.1
                        c-1.3,8.7-3.4,17.2-6.1,25.6c-4.4-0.1-8.9-0.1-13.3-0.2c2.5-3.3,5-6.8,4.6-11.3c-0.3-4-1.3-7.8-2.8-11.5
                        C282.2,188.7,280.9,187.6,282.6,186.7z"/>
                        <path fill="#8D8D8D" d="M22.5,186.7c-0.4,0.1-0.8,0.2-1.1,0.2c-0.2-0.2-0.2-0.4,0-0.6C21.7,186.5,22.1,186.6,22.5,186.7z"/>
                        <path fill="#8D8D8D" d="M282.6,186.7c-1.7,0.8-0.4,1.9-0.1,2.8c1.5,3.7,2.5,7.6,2.8,11.5c0.4,4.5-2.1,7.9-4.6,11.3
                          c-4.1,2.1-6.9,4.8-7.7,9.9c-0.7,4.6-3.4,7.8-9,8.5c-5.4,0.6-10.6,2.9-16.2,2.9c-2.6,0-4.3-0.9-5.6-3.3c-2.5-4.6-3.9-9.4-4.3-14.5
                          c-0.1-1.8-0.7-2.9-2.3-3.6c-5.8-4.7-12.8-7.3-19.4-10.5c-2.4-1.1-4.7-1.7-7.3-0.7c-2.7,1.1-6.7-0.6-8.1,2.2
                          c-1.3,2.6-0.6,6.1-0.2,9.2c1.3,14.2,6.7,26.9,13.8,39.1c1.4,2.3,1.1,3.4-0.8,5.2c-12.3,11.5-24.5,23-36.7,34.6
                          c-1.1,1.1-2.1,2.2-3.2,3.4c-5.7,4.3-10.4,9.8-15.8,14.5c-2.5,2.2-4.8,4.6-7.2,6.8c-0.8,0.8-1.5,1.7-2.8,1.5
                          c-6-3.6-12.3-5.9-19.3-7.4c-14.6-3.2-25.7-12.4-35.6-23.2c-11.1-12.1-18.9-26-22.4-42.4c-2.1,5.9-3.3,12.1-4.1,18.3
                          c-0.8,6.2-1.4,12.4-2.2,19.2c-4.9-8-7.8-16.1-9.1-24.8c-2.1-14-0.3-27.8,2.7-41.5c0.2-1.1,0.4-2.2,0.6-3.3
                          c2.6-8.6,5.5-17,10.1-25.3c-3-0.5-4.4,1.6-6.1,2.8c-1.9,1.4-3.7,2.9-5.4,4.4c-1.8,1.5-3.5,3-5.5,4.8c-1-3.6,0.3-6.7,0.9-9.8
                          c0.2-1.1,0.9-2.4-1.1-2.5c1.2-0.3,2-0.9,2.4-2.3c5.4-17.6,16.5-30.9,31.3-41.4c0.3-0.2,0.5-0.5,0.7-0.7c0.1,0,0.2-0.1,0.2-0.1
                          c0,0,0-0.1,0-0.2c-0.1,0.1-0.1,0.2-0.2,0.3c-5.5,0.2-10.4,2.5-15.5,4.3c-1.7,0.6-3.3,1.3-4.9,1.9c-0.1-0.1-0.2-0.2-0.3-0.3
                          c5-9.5,12.4-16.9,20.9-23.3c18.3-13.7,38.7-20.7,61.7-19c6.5,1.8,6.4,1.8,7.5-4.3c1-5.9,2.8-11.6,4.5-17.3
                          c2.3-7.6,7.6-12.4,13.9-16.6c0.1,0,0.2,0,0.3,0c1.8-0.7,3.7-3.2,5.1-2.2c1.6,1.1,0.3,3.9,0.1,5.9c-0.5,6.5-0.3,13.1-0.2,19.6
                          c0,2,0.9,2.5,3,3c6.3,1.4,9.3-1,11.7-6.8c3-7.4,10.5-9.5,17.7-12.4c-1,5.4-2.5,10.2-2.9,15.1c0,0.2-0.1,0.4-0.1,0.7
                          c-1.1,7.6-1.1,7.6,5.9,10.4c15.9,6.4,29.1,16.7,40.3,29.8c-9.7-3-18.9-7.5-29.9-8.3c3.2,2.3,5.9,4.2,8.5,6.2
                          c20.3,14.7,36.1,33.2,47,55.9C280.8,185.7,281.5,186.4,282.6,186.7z M176.1,287.2c-0.1,0.2-0.3,0.7-0.3,0.7
                          c0.4,0.2,0.5-0.1,0.6-0.4c0.2-0.2,0.5-0.4,0.7-0.6c0.2-0.2,0.5-0.4,0.7-0.6c11.2-10.4,22.3-20.9,33.5-31.3
                          c1.4-1.3,0.3-2.2-0.2-3.1c-4.6-8.2-8.5-16.8-11.1-25.9c-2.1-7.6-3.1-15.4-2.3-23.3c0.2-2.2,0.9-3.7,3.6-3.4c3,0.2,6-0.4,8.8-1.3
                          c1.2-0.4,2.3-0.4,3.5,0.1c8,3.3,15.8,6.8,22.8,11.9c1.5,1.1,4.2,1.6,3.8,4.7c-0.6,5.1,1.8,9.6,3.8,14.1c0.8,1.8,2,2.4,3.9,2.3
                          c4.1-0.2,8.1-1.4,12.1-2.2c1.9-0.4,2.7-1.4,2.6-3.2c1.5,1.1,2.8,3.4,4.9,1c2.6-3.3,3.9-7.1,3.4-11.3c-0.4-3.3-0.4-6.6,0.1-9.9
                          c0.3-1.7,0.7-3.5,0.8-5.2c0.1-1.6,0.5-3.8-1.5-4.2c-1.8-0.4-2.4,1.6-3,3c-1.7,4.1-1.9,8.2,0.4,12.1c1.8,3.1,2,6.2,0.6,9.5
                          c-1.5,3.7-2.2,3.7-5.1,1c-4.4-4.1-9.2-7.6-14.3-11.1c-0.5,2.4,0.9,3.5,2.2,4.5c2.6,2.1,5.4,3.9,7.9,6c1,0.8,2.8,1.3,2.4,3.3
                          c-3.7,1-7.4,2.2-11.2,3.1c-1.4,0.4-3.2,0.7-4.3-0.9c-2.3-3.4-4.1-7.3-4.4-11.3c-0.2-2.2-0.8-3.6-2.1-5
                          c-5.5-5.9-12.4-9.6-19.5-12.9c-2.3-1-4.1-1.7-0.7-4.4c-13.5,4.5-26.1,4.3-37.6-3.9c-11.7-8.4-15.1-20.3-12.6-34.4
                          c-1.4,0.6-1.6,1.7-1.9,2.5c-5.3,12.2-2.7,23.8,2.5,35.3c0.6,1.3,1.8,1.5,3,1.9c6.6,2,13.2,3.9,20,4.7c1.9,0.2,2.4,0.8,2.2,2.7
                          c-0.4,3.6-0.6,7.3-0.9,10.9c-0.9,14.6-0.2,29,4.1,43.1c0.7,2.2,0.3,3.7-1.1,5.4c-6.7,8.3-13.3,16.6-19.9,24.9
                          c-0.2,0.2-0.4,0.4-0.6,0.7C176.5,286.7,176.3,287,176.1,287.2z M76.1,168.5c-0.2-0.2-0.4-0.4-0.6-0.5c1.4-2.3,3.3-4.2,5.1-6.1
                          c10.9-10.9,22.3-21.2,35.4-30.2c-6.5-2.8-13.1-2.5-20.7-2.6c2.3-1.5,3.7-2.5,5.2-3.3c10.4-5.4,21.4-8.8,33.1-8.6
                          c7,0.1,10.7-4.7,15.7-7.7c-3-0.5-5.8-0.9-8.7-0.9c-16.3,0.1-31.1,5.1-45,13.2c-9.4,5.5-17.9,12.2-24.5,21.1
                          c-0.1,0.2-0.2,0.5-0.3,0.7c0.3,0,0.5-0.1,0.8-0.1c2.8-1,5.6-2,8.5-2.8c2.9-0.8,5.8-1.6,8.7-2c2.8-0.4,5.6-1.3,9.1-0.6
                          c-10.7,6.7-20.5,13.7-28.3,23.1c-7.9,9.5-12.5,20.6-16,32.6c1.9-0.4,2.6-1.4,3.5-2.2c4.3-4,8.9-7.6,13.9-10.8
                          c2.4-1.5,4.6-3.4,7.7-3.6l0,0c-1.7,2.5-3.5,4.8-5,7.4c-13.7,23.1-18.1,48-14.6,74.5c0.7,5.1,1.7,10.1,4.1,15.7
                          c1.5-15.6,2.7-30.3,9.8-43.7c-2.3,38.4,37.4,75.6,59.5,76.9C98,279.5,83.2,243.2,87.2,198.2c-9.6,9-15.6,19.3-21.2,30
                          c1.8-12.4,6.6-23.8,11.8-35c5.2-11.2,10.9-22.1,19.1-32.1C88.9,161.9,82.6,165.6,76.1,168.5z M243.5,123.9c0.2,0.5,0.6,0.6,1,0.2
                          c-0.2-0.2-0.5-0.4-0.7-0.6c-10.1-10.2-22.2-17.1-35.7-21.9c-2.1-0.8-2.8-1.7-2.8-4c0.1-6,0.9-11.8,2.2-18
                          c-0.9,0.3-1.4,0.4-1.9,0.6c-6.9,2.5-10.3,8.2-12.6,14.6c-0.7,2.1-1.7,2.7-3.9,2.4c-2.6-0.4-5.3-0.8-7.9-0.5
                          c-3.7,0.4-5-1.1-4.8-4.5c0-1-0.1-2-0.1-3c0-6.4,0-12.8,0-19.6c-5,2.9-9.7,6-11.9,11.2c-3.8,8.7-6.7,17.6-6.7,27.2
                          c0,1.8-0.6,2.8-2.2,3.6c-4.9,2.4-9.4,5.4-13.6,8.8c-16.5,13.4-27.8,30.5-36.4,49.7c-6.9,15.3-11.5,31.2-10.8,48.2
                          c0.6,14.3,3.2,28.2,8.1,41.6c7.7,21.2,20.2,38.9,39.6,51c5.7,3.6,5.7,3.5,10.6-1.1c5.1-4.8,10.1-9.5,15.2-14.3
                          c-0.9-1.1-1.8-0.9-2.7-1c-8.5-1-16.5-3.5-23.8-8c-23.8-14.8-35.9-36.7-37-64.3c-0.9-23.2,4.3-45.4,14.8-66.2
                          c9.6-19,22.2-35.6,41.3-46.1c3-1.7,4.1-3.4,4-6.9c-0.1-9,2.6-17.3,9-24.8c0,1.8,0,3,0,4.2c0,8,0.3,16,3.8,23.4
                          c1,2.2,2.3,3.4,4.9,3.8c6.1,1,12,3,17.8,5.4c13,5.5,24.5,13.4,34.7,23c15.8,14.8,29.6,31.2,40.2,50.1c6,10.8,5.5,15.6-1.9,24.2
                          c1.2,0.5,2.2-0.1,3.1-0.8c5.8-4.3,7.6-8.4,5.5-15.8c-3.8-13.2-11.3-24.5-19.4-35.4c-13.5-18.2-31.5-31.4-50.6-43
                          c-7.4-4.5-15-8.4-22.9-11.9c13.9,0.9,27.2,4.1,39.6,10.7c-4.3,0.8-8.7,0-12.9,1.4C225,119.5,234.4,120.9,243.5,123.9z
                          M175.4,267.2c0.8-1.3,0.1-2.2-0.2-3.3c-5.6-19.4-8.3-39.2-5.7-59.4c0.2-1.9-0.4-2.7-2.1-3c-2.4-0.4-3.6-1.9-4.1-4.2
                          c-0.3-1.1-0.8-2.1-1.2-3.2C159.9,219.8,161.9,244.5,175.4,267.2z M207.2,129.4c4,0.9,4.4,3.6,3.8,6.9c-0.1,0.3,0,0.7-0.1,1
                          c-0.4,2.5,0.9,3.9,3.1,4.8c2.5,1,5.5,1.9,7-0.5c2.8-4.4,3.8-1,5.3,0.7c0.9,1,1.5,2.1,2.4,3.4C228.3,136.9,219.2,129.9,207.2,129.4
                          z M219.9,192.4c-0.1,0.1-0.2,0.1-0.3,0.2c0.1,0.1,0.1,0.2,0.2,0.2c0.1,0,0.2-0.1,0.2-0.2C220,192.6,220,192.5,219.9,192.4z"/>
                          <path fill="#8D8D8D" d="M65.5,148.7c-0.2,0.2-0.5,0.4-0.7,0.1c0,0,0.2-0.3,0.4-0.4C65.3,148.4,65.4,148.5,65.5,148.7z"/>
                          <path fill="#0000FF" d="M200.5,212.5c-0.3-3.1-1-6.6,0.2-9.2c1.4-2.9,5.4-1.2,8.1-2.2c2.5-1,4.9-0.4,7.3,0.7
                            c6.6,3.2,13.6,5.8,19.4,10.5C223.8,212.4,212.1,212.5,200.5,212.5z"/>
                            <polygon fill="#8D8D8D" points="298.5,186.8 298.4,186.8 298.5,186.6 		"/>
                            <polygon fill="#8D8D8D" points="285.3,186.8 285.1,186.8 285.2,186.6 		"/>
                            <path fill="#0A0B0C" d="M243.5,123.9c-9.1-3-18.5-4.3-28-5.8c4.2-1.4,8.6-0.6,12.9-1.4c-12.4-6.6-25.6-9.8-39.6-10.7
                              c7.9,3.5,15.5,7.4,22.9,11.9c19.2,11.6,37.1,24.7,50.6,43c8,10.9,15.6,22.1,19.4,35.4c2.1,7.4,0.3,11.6-5.5,15.8
                              c-0.9,0.7-1.8,1.3-3.1,0.8c7.4-8.6,7.9-13.4,1.9-24.2c-10.6-19-24.5-35.3-40.2-50.1c-10.3-9.6-21.7-17.5-34.7-23
                              c-5.7-2.4-11.6-4.4-17.8-5.4c-2.6-0.4-3.9-1.7-4.9-3.8c-3.5-7.4-3.9-15.4-3.8-23.4c0-1.2,0-2.4,0-4.2c-6.3,7.5-9,15.7-9,24.8
                              c0,3.5-1.1,5.2-4,6.9c-19.1,10.6-31.7,27.1-41.3,46.1c-10.4,20.8-15.6,43-14.8,66.2c1,27.6,13.1,49.5,37,64.3
                              c7.2,4.5,15.3,7,23.8,8c0.8,0.1,1.8-0.1,2.7,1c-5,4.7-10.1,9.5-15.2,14.3c-4.9,4.6-4.9,4.7-10.6,1.1c-19.4-12.2-31.8-29.8-39.6-51
                              c-4.9-13.4-7.5-27.3-8.1-41.6c-0.7-17,4-32.9,10.8-48.2c8.6-19.2,19.9-36.3,36.4-49.7c4.2-3.4,8.8-6.4,13.6-8.8
                              c1.6-0.8,2.2-1.8,2.2-3.6c0.1-9.6,3-18.6,6.7-27.2c2.3-5.3,7-8.3,11.9-11.2c0,6.8,0,13.2,0,19.6c0,1,0.1,2,0.1,3
                              c-0.1,3.4,1.1,4.9,4.8,4.5c2.6-0.3,5.3,0.1,7.9,0.5c2.2,0.3,3.2-0.3,3.9-2.4c2.3-6.4,5.7-12,12.6-14.6c0.5-0.2,1-0.3,1.9-0.6
                              c-1.3,6.1-2.1,12-2.2,18c-0.1,2.3,0.6,3.3,2.8,4c13.4,4.7,25.6,11.6,35.7,21.9C243.7,123.7,243.6,123.8,243.5,123.9z M204.2,86.8
                              c-0.2-0.2-0.5-0.3-0.7-0.5c-0.6,0.8-1.2,1.5-1.8,2.3c-1.2,1.6-2.4,3.2-3.4,4.9c-2.7,4.5-2.6,4.8,2.6,5.9c1.6,0.4,2.1,0.2,2.2-1.5
                              C203.3,94.2,203.8,90.5,204.2,86.8z"/>
                              <path fill="#0A0B0C" d="M71.1,142.9c6.5-8.9,15-15.6,24.5-21.1c13.9-8.1,28.8-13.2,45-13.2c2.9,0,5.7,0.4,8.7,0.9
                                c-5,3-8.7,7.8-15.7,7.7c-11.7-0.2-22.7,3.1-33.1,8.6c-1.5,0.8-2.9,1.8-5.2,3.3c7.6,0.2,14.2-0.1,20.7,2.6
                                c-13.1,9-24.5,19.3-35.4,30.2c-1.9,1.9-3.7,3.8-5.1,6.1c-0.1,0.3-0.1,0.5-0.2,0.8c0.3-0.1,0.5-0.2,0.8-0.3
                                c6.5-2.9,12.8-6.6,20.7-7.4c-8.2,10-13.9,20.9-19.1,32.1c-5.2,11.2-10,22.6-11.8,35c5.6-10.7,11.6-21,21.2-30
                                c-4.1,45,10.8,81.2,45.1,109.5c-22.1-1.3-61.8-38.5-59.5-76.9c-7,13.3-8.3,28-9.8,43.7c-2.3-5.6-3.4-10.6-4.1-15.7
                                c-3.5-26.5,0.9-51.4,14.6-74.5c1.5-2.5,3.3-4.9,5-7.4c0.2-0.1,0.7,0,0.2-0.4c-0.1,0.1-0.1,0.3-0.2,0.4c-3,0.2-5.3,2.1-7.7,3.6
                                c-5,3.1-9.6,6.8-13.9,10.8c-0.9,0.8-1.6,1.8-3.5,2.2c3.5-12,8.1-23.1,16-32.6c7.8-9.4,17.6-16.4,28.3-23.1
                                c-3.4-0.7-6.3,0.2-9.1,0.6c-2.9,0.5-5.8,1.2-8.7,2c-2.9,0.8-5.7,1.9-8.5,2.8C71.4,143.3,71.3,143.1,71.1,142.9z"/>
                                <path fill="#0A0B0C" d="M177.2,285.8c6.6-8.3,13.2-16.6,19.9-24.9c1.4-1.7,1.7-3.1,1.1-5.4c-4.3-14.1-5-28.5-4.1-43.1
                                  c0.2-3.6,0.5-7.3,0.9-10.9c0.2-1.8-0.3-2.5-2.2-2.7c-6.8-0.7-13.5-2.6-20-4.7c-1.1-0.4-2.4-0.6-3-1.9c-5.2-11.4-7.8-23.1-2.5-35.3
                                  c0.4-0.9,0.5-1.9,1.9-2.5c-2.4,14,0.9,25.9,12.6,34.4c11.5,8.2,24.1,8.4,37.6,3.9c-3.3,2.7-1.5,3.3,0.7,4.4
                                  c7.2,3.3,14.1,7.1,19.5,12.9c1.3,1.4,1.9,2.9,2.1,5c0.3,4.1,2.1,7.9,4.4,11.3c1.1,1.6,2.8,1.2,4.3,0.9c3.7-0.9,7.4-2,11.2-3.1l0,0
                                  c0,0.5,0.1,0.8,0.7,0.7l0,0c0,0.5-0.1,1.1,0.7,0.7l0,0c0.1,1.8-0.7,2.8-2.6,3.2c-4,0.8-7.9,2-12.1,2.2c-1.9,0.1-3.2-0.5-3.9-2.3
                                  c-2-4.5-4.4-9-3.8-14.1c0.4-3.1-2.3-3.6-3.8-4.7c-7-5.1-14.8-8.6-22.8-11.9c-1.2-0.5-2.3-0.5-3.5-0.1c-2.9,0.9-5.8,1.5-8.8,1.3
                                  c-2.8-0.2-3.4,1.2-3.6,3.4c-0.8,7.9,0.1,15.7,2.3,23.3c2.6,9.1,6.4,17.7,11.1,25.9c0.6,1,1.6,1.8,0.2,3.1
                                  c-11.2,10.4-22.3,20.9-33.5,31.3C177.7,286.1,177.4,285.9,177.2,285.8z"/>
                                  <path fill="#0A0B0C" d="M175.4,267.2c-13.5-22.8-15.5-47.5-13.3-73c0.4,1.1,0.9,2.1,1.2,3.2c0.6,2.2,1.8,3.7,4.1,4.2
                                    c1.7,0.3,2.3,1.1,2.1,3c-2.6,20.2,0.1,40,5.7,59.4C175.5,265,176.1,265.9,175.4,267.2z"/>
                                    <path fill="#0A0B0C" d="M261.6,224.3c0.5-2-1.4-2.5-2.4-3.3c-2.5-2.1-5.3-4-7.9-6c-1.3-1-2.7-2.1-2.2-4.5c5.1,3.5,10,7,14.3,11.1
                                      c2.9,2.7,3.5,2.7,5.1-1c1.4-3.3,1.2-6.4-0.6-9.5c-2.3-3.9-2.1-8-0.4-12.1c0.6-1.4,1.2-3.4,3-3c2,0.4,1.6,2.6,1.5,4.2
                                      c-0.1,1.8-0.5,3.5-0.8,5.2c-0.6,3.3-0.6,6.5-0.1,9.9c0.5,4.1-0.7,8-3.4,11.3c-2,2.5-3.4,0.2-4.9-1l0,0c0-0.5,0-0.9-0.7-0.7l0,0
                                      C262.4,224.3,262.4,223.8,261.6,224.3L261.6,224.3z"/>
                                      <path fill="#0A0B0C" d="M207.2,129.4c12,0.5,21.2,7.5,21.6,16.3c-0.9-1.3-1.6-2.4-2.4-3.4c-1.5-1.7-2.6-5.1-5.3-0.7
                                        c-1.5,2.4-4.5,1.5-7,0.5c-2.2-0.9-3.5-2.3-3.1-4.8c0.1-0.3,0-0.7,0.1-1C211.6,133,211.2,130.3,207.2,129.4z"/>
                                        <path fill="#0A0B0C" d="M243.8,123.5c0.2,0.2,0.5,0.4,0.7,0.6c-0.4,0.4-0.8,0.3-1-0.2C243.6,123.8,243.7,123.7,243.8,123.5z"/>
                                        <path fill="#FDFDFD" d="M85.9,142.4c0.1-0.1,0.1-0.2,0.2-0.3c0,0.1,0,0.1,0,0.2C86,142.3,85.9,142.3,85.9,142.4
                                          C85.9,142.4,85.9,142.4,85.9,142.4z"/>
                                          <path fill="#0A0B0C" d="M176.7,286.4c0.2-0.2,0.4-0.4,0.6-0.7c0.2,0.2,0.4,0.3,0.6,0.5c-0.2,0.2-0.5,0.4-0.7,0.6
                                            C177,286.8,176.8,286.6,176.7,286.4z"/>
                                            <path fill="#0A0B0C" d="M71.6,143.5c-0.3,0-0.5,0.1-0.8,0.1c0.1-0.2,0.2-0.5,0.3-0.7C71.3,143.1,71.4,143.3,71.6,143.5z"/>
                                            <path fill="#0A0B0C" d="M176.5,287.5c-0.1,0.3-0.3,0.6-0.6,0.4c0,0,0.2-0.4,0.3-0.7C176.2,287.3,176.4,287.4,176.5,287.5z"/>
                                            <path fill="#0A0B0C" d="M219.9,192.4c0.1,0.1,0.1,0.2,0.2,0.2c-0.1,0.1-0.2,0.2-0.2,0.2c-0.1,0-0.1-0.1-0.2-0.2
                                              C219.7,192.6,219.8,192.5,219.9,192.4z"/>
                                              <path fill="#0A0B0C" d="M177.2,286.9c-0.2,0.2-0.5,0.4-0.7,0.6c-0.1-0.1-0.2-0.2-0.3-0.3c0.2-0.3,0.4-0.5,0.5-0.8
                                                C176.8,286.6,177,286.8,177.2,286.9z"/>
                                                <path fill="#8D8D8D" d="M204.2,86.8c-0.4,3.7-0.8,7.4-1.1,11.1c-0.1,1.8-0.7,1.9-2.2,1.5c-5.1-1.2-5.3-1.4-2.6-5.9
                                                  c1-1.7,2.3-3.3,3.4-4.9c0.6-0.8,1.2-1.6,1.8-2.3C203.7,86.5,203.9,86.6,204.2,86.8z"/>
                                                  <path fill="#8D8D8D" d="M76.1,168.5c-0.3,0.1-0.5,0.2-0.8,0.3c0.1-0.3,0.1-0.5,0.2-0.8C75.7,168.2,75.9,168.4,76.1,168.5z"/>
                                                  <path fill="#8D8D8D" d="M78.6,177c0.1-0.1,0.1-0.3,0.2-0.4C79.3,177,78.7,176.9,78.6,177L78.6,177z"/>
                                                  <path fill="#8D8D8D" d="M262.2,224.9c0.7-0.2,0.7,0.2,0.7,0.7C262.1,226,262.2,225.4,262.2,224.9z"/>
                                                  <path fill="#8D8D8D" d="M261.5,224.2c0.8-0.4,0.8,0.1,0.7,0.7C261.6,225,261.5,224.7,261.5,224.2z"/>
                                                </g>
                                              </g>
                                            </svg>
                                            
