<!-- Generator: Adobe Illustrator 18.1.1, SVG Export Plug-In  -->
<svg version="1.1"
  xmlns="http://www.w3.org/2000/svg" xmlns:xlink="http://www.w3.org/1999/xlink" xmlns:a="http://ns.adobe.com/AdobeSVGViewerExtensions/3.0/"
  x="0px" y="0px" width="321.5px" height="376.3px" viewBox="0 0 321.5 376.3" enable-background="new 0 0 321.5 376.3"
  xml:space="preserve">
  <defs>
  </defs>
  <g id="QirSiT.tif_2_">
    <g>
      <path fill="#E7130D" d="M321.3,156.9c0,28.8,0.4,57.7-0.1,86.5c-0.6,38.1-15.4,70.4-45.7,93.2c-60.8,45.9-127.6,50.9-196.2,20.6
        C26.7,334-0.5,292.4,0,233.7c0.5-55.8,0.2-111.7,0-167.6c0-4.8,1.1-8.1,5.1-11.2C26.8,38,48.1,20.6,69.8,3.7
        c2.8-2.2,7-3.5,10.5-3.5c53.8-0.2,107.5-0.2,161.3,0c3.5,0,7.6,1.5,10.4,3.7c21.5,16.8,42.7,34,64.1,50.8
        c3.9,3.1,5.3,6.2,5.2,11.1C321.3,96.1,321.4,126.5,321.3,156.9C321.4,156.9,321.3,156.9,321.3,156.9z M301.7,75.9
        c0.1-5.5-1.7-9-6.1-12.3c-16.6-12.9-32.8-26.3-49.5-39.1c-3.4-2.6-8.3-4.5-12.5-4.5c-48.6-0.3-97.1-0.3-145.7,0
        c-4,0-8.7,1.7-11.8,4.1C58.8,37.4,41.7,51.1,24.9,65c-2.5,2.1-4.6,6.3-4.6,9.5c-0.3,55.6-0.4,111.2-0.1,166.7
        c0.2,32.9,13.7,59.8,38.9,80.7c54.3,45.1,150.2,44.8,204.2-0.6c23.7-19.9,37.2-45.2,37.9-76.3c0.7-27.5,0.1-55.1,0.1-82.6
        c0.1,0,0.2,0,0.2,0C301.6,133.6,301.4,104.7,301.7,75.9z"/>
        <path fill="#FBF5F4" d="M301.3,162.4c0,27.5,0.5,55.1-0.1,82.6c-0.7,31.1-14.2,56.5-37.9,76.3c-54.1,45.4-149.9,45.6-204.2,0.6
          c-25.2-20.9-38.7-47.8-38.9-80.7c-0.3-55.6-0.2-111.2,0.1-166.7c0-3.2,2.1-7.4,4.6-9.5c16.8-13.9,33.8-27.5,51.1-40.8
          c3.2-2.4,7.8-4.1,11.8-4.1c48.6-0.3,97.1-0.3,145.7,0c4.2,0,9.1,1.9,12.5,4.5c16.7,12.8,32.9,26.2,49.5,39.1
          c4.3,3.4,6.1,6.8,6.1,12.3c-0.3,28.8-0.1,57.7-0.1,86.5C301.5,162.4,301.4,162.4,301.3,162.4z M294.1,205
          c0-41.8-0.1-83.6,0.1-125.4c0-5.2-1.4-8.5-5.6-11.7c-15.4-11.9-30.4-24.3-45.9-36.1c-3.2-2.4-7.8-4.2-11.8-4.2
          c-46.7-0.3-93.5-0.3-140.2,0c-3.8,0-8.2,1.5-11.2,3.8c-15.7,12-31.1,24.3-46.3,36.9c-2.7,2.3-5.1,6.7-5.1,10.1
          c-0.3,54.3-0.2,108.5-0.2,162.8c0,13.9,2.8,27.2,9.5,41.2c3.2-9.5,6-17.7,9.2-26.8c-3,1-5.2,1.8-9.5,3.3c0.7-14.5,1.4-28.2,2-41.8
          c0.9,0,1.9,0,2.8,0c-0.6,11.3-1.1,22.6-1.8,36.4c6.1-4.5,10.3-7.5,15.7-11.5c-4.6,12.3-8.2,23.1-12.6,33.5
          c-4,9.3-1.6,16.5,4.6,24.1c19.8,24.2,45.7,37.8,75.7,44.3c38.8,8.3,76.4,4.7,112.1-13.2c14.8-7.4,27.7-17.4,37.8-30.6
          c1.2-1.6,0.8-4.5,1.1-6.8c0-1,0-1.9,0-2.9c3.9,1.9,5.9,0.1,7.8-3.4c8.2-15,11.7-31.2,12-48.2c0.1-5.9,0.1-11.8,0.1-17.8
          C294.2,215.7,294.1,210.3,294.1,205z"/>
          <path fill="#0A0A0A" d="M56.9,170c-3.4,0.8-8.5,2-13.7,3.2c2.5-13.5,14.4-31.1,31.5-46.5c-5.7-0.3-10.4-0.5-16.8-0.8
            c15.9-22.4,36.1-35.1,63.2-38.2c-5.6-1.9-11.1-3.7-18-6c17.6-9.3,34.8-14.1,54.6-12.8c-5-3.9-10.1-7.8-16.2-12.6
            c10,0,19.1-1.4,27.6,0.4c8.2,1.7,15.7,6.8,23.5,10.4c0.5-0.6,1-1.1,1.5-1.7c-4.8-4.3-9.7-8.7-14.2-12.7c12.5-4,23.6,0.8,39.9,18
            c0-4.7,0-8.7,0-12.8c25.9,16.2,36.2,36.1,16.7,53.9c10.2,8.8,19.3,18.3,19.6,33c0,0.5,0.2,1.1,0.5,1.4
            c16.9,15.9,15.5,41.4,30.9,58.3c2.3,2.6,1.5,8.4,1.5,12.7c0,4.3,0,8.9-1.4,13c-1.2,3.4-3.8,6.9-6.7,9c-3.4,2.4-7.7,3.6-11.8,4.9
            c-3.2,1.1-6.5,1.7-9.8,3c-3.3,0.9-6.6,2.7-9.8,2.5c-11.8-0.8-20.5-5.5-23.4-18.5c-2.3-10.2-8.8-14-19.1-14.2
            c-3.8-0.1-7.6-1-11.7-1.6c-6.3,14.8,1,27.4,9,39.7c0.8,1.2,3.1,1.9,4.7,2.2c15.7,2.5,28.4,10.5,40.7,19.9
            c7.7,5.9,16.3,10.7,24.5,16c-0.3,2.3,0.1,5.1-1.1,6.8c-10,13.3-22.9,23.3-37.8,30.6c-35.7,17.8-73.3,21.5-112.1,13.2
            c-30-6.4-55.9-20.1-75.7-44.3c-6.2-7.5-8.5-14.7-4.6-24.1c4.4-10.4,8.1-21.2,12.6-33.5c-5.4,4-9.6,7-15.7,11.5
            c0.7-13.8,1.2-25.1,1.8-36.4C46.9,201.3,51.9,185.6,56.9,170z M279.2,230.7c0.8-3.7,1.7-7.4,2.5-11.2c2.3-7.8,0.1-14.5-4.4-21.1
            c-4.4-6.3-8.4-13.1-12-19.9c-2.1-4-2.8-8.8-5-12.7c-3.1-5.5-7.3-10.4-10.6-15.8c-1.6-2.6-3-5.7-3.1-8.6
            c-0.2-12-19.8-31.2-31.5-30.4c-3.8-1.5-8-4.9-11.2-4.2c-6.8,1.6-9.5-2-12.8-6.3c-1.3-1.7-3.6-2.6-5.4-3.8
            C178,90.2,169.8,85,159,86c-0.8,0.4-2.3,1.2-2.3,1.3c3.8,9,8.8,17,18.7,20.6c3.7,1.4,7.1,3.3,9.4,4.4
            c-6.4,10.1-12.1,19.2-17.9,28.2c-4.3,12.4-4.1,23.7,6.9,33.1c6,5.2,11.2,11.3,16.8,17c3.3,1.9,6.3,4.7,9.9,5.5
            c9.2,2.2,24-3.9,26.9-10.4c7.6-3,15-2.2,24.1,2.8c-2.3-6-3.8-9.8-5.3-13.7c-1-3.9-1.9-7.7-3.5-13.8c9.9,9,14.1,18.7,17.3,28.9
            c0.9,2.9,0.7,6.2,1.8,9.1c1.2,3.1,3.3,5.9,6.2,10.8c-1.4,3.2-7.8,9.4,1.6,14.9c0.5,0.5,1,1,1.6,1.6
            C273.9,227.8,276.6,229.2,279.2,230.7z M229.1,208.6c-0.2-0.5-0.5-0.8-1-0.9c1.2-1.1,2.9-3.3,3.6-3c7.4,2.7,16.1,2.9,19.5,12.7
            c2.6,7.2,7.3,13.6,11.6,21.3c1.6-0.7,4.2-1.9,5-2.3c-3.6-10.2-6.8-19.4-10-28.6c-2.8-8.2-15.2-17.7-22.5-15.6
            c-5.7,1.6-10.7,6-16,9.1c-8.5,3.3-0.9,7.6,0.5,8.4c9,4.8,10.6,13.9,13.6,22c2.5,6.7,6.5,10.5,14.2,10.3c0.6,0.8,1.3,1.6,1.9,2.4
            c0.2-0.2,0.3-0.3,0.5-0.5c-0.8-0.6-1.6-1.3-2.4-1.9c-0.5-2.6-1-5.2-1.4-7.8c1.9-10.7-6.8-14.9-12.6-21c-0.8-0.8-1.6-1.6-2.4-2.4
            C230.7,210,229.9,209.3,229.1,208.6z M228.2,106.4c1.5,0.5,4.3-0.5,5.6-1.8c6-6.1,6.4-13.8,1.7-22.5c-2.2-3.9-4.3-7.7-7.1-12.7
            c-1.7,7.6-2.9,13.5-4.6,21.4c-4.3-7.1-7-12.6-10.6-17.4c-3.6-4.7-8.1-8.8-13.4-14.5c0.7,9.2,1.1,16.1,1.7,23.7
            C189,75,177.7,68,166.4,60.9c-0.6,0.7-1.2,1.5-1.7,2.2c3.3,6.1,13.3,9.4,9.7,18.6c6.4,3.8,13.4,8,20.4,12.2
            C205.9,98.1,217,102.5,228.2,106.4z M180.5,215.1c0-0.2-0.4-0.4-0.4-0.6c2.3-16.4-14.6-22.5-18.7-35.5c-9.3,24.4-10.2,48,6.4,69.6
            c2.4,3.1,6.4,4.9,9.6,7.3c2.3,2.2,4.6,4.4,6.9,6.5c0.9-0.3,1.8-0.7,2.8-1c-1.5-8-3.1-16.1-4.6-24.1
            C181.8,229.9,181.2,222.5,180.5,215.1z M181.7,323.1c-9.3-17.2-15.5-35-14.8-54.9c0.1-2.2-1.5-4.8-2.9-6.7
            c-24.5-31.9-27.2-65.6-9-101.4c2.2-4.4,2.6-9.7,3.9-14.6c0-2.2,0.1-4.4,0.1-6.6c3.2-6.1,6.5-12.2,9.7-18.2c-7.1-5.7-11.2-3-16,2.5
            c-18.9,21.8-32,46.4-37.9,74.6c-5.4,25.7-5.3,51.6,1.8,76.8c3.4,12,11,22.8,16.8,34c2.6,5,5.7,9.8,8.5,14.8
            c8.1,8.4,15.3,17.9,27.9,19.9C179.2,342.4,186.1,331.1,181.7,323.1z M156.4,108.3c-3.2-9.9-6.2-19.1-9.3-28.8c4.9,0,9.6,0,14.4,0
            c-12.4-4.4-24.7-3.2-37.1,0c8.9,4.6,17.3,9,26.8,13.9c-15.7,1.8-29.6,2.3-43,5.1c-13.5,2.8-25,10.4-36.1,20.7
            c12.1-1.7,22.9-3.3,33.7-4.8c0.2,0.8,0.5,1.6,0.7,2.3c-20.6,9.3-37.4,22.9-49.3,42.1c-0.2,1-0.5,2-0.7,3c0.7-0.5,1.4-1,2.1-1.5
            c8-2.9,16-5.9,24-8.8c0.3,0.7,0.7,1.5,1,2.2c-21.4,22.7-34,49.2-35.8,83c7-8.5,12.7-15.4,19.2-23.3c0.2,2.6,0.4,4.2,0.3,5.7
            c-0.8,22.6-2.1,45.4,4.6,67.3c2.7,9,7.5,17.6,12.7,25.4c3.9,5.7,10.3,9.4,18.2,8.1c0.6,0.4,1.3,0.7,1.9,1.1
            c0.1-0.3,0.2-0.5,0.4-0.8c-0.7-0.2-1.4-0.3-2.1-0.5c-11.9-7.8-20.7-18-21.1-32.9c-0.2-7.6,1.7-15.2,2.6-22.8
            c10.9-22.3,18.4-45.5,19.2-70.5c0.1-2.1,0.4-4.1,0.5-6.2c0-0.8-0.1-1.5-0.2-2.7c-2.9,0.5-5.7,0.9-8.9,1.4
            c11.8-14.8,23-29,34.3-43.3c-0.5-0.6-1-1.3-1.6-1.9c-5.1,0.5-10.2,1-15.7,1.5c12.3-10.3,24-20.1,35.8-29.9
            C150.8,111.1,153.7,109.6,156.4,108.3z M216.1,284c-11.5-2.8-22.8-5.6-35.8-8.7c3,14,6,27.8,9.2,42.2
            C204.2,314.4,214.7,300.3,216.1,284z"/>
            <path fill="#EEE0DE" d="M291.8,220.8c-0.2,3.4-0.3,6.7-0.6,10.1c-0.5,6.7-3.8,10.6-10.7,12.3c-7,1.7-14,4.3-20.4,7.8
              c-10.5,5.8-30.5-0.6-34.6-11.8c-0.6-1.7-1.1-3.5-1.6-5.2c-3.4-10.5-7.3-13.4-18.5-13.6c-2.3,0-4.6-0.2-6.9-0.3
              c-5.3,13.3,3.6,31.7,16.9,35c13.7,3.4,25.2,10.6,36.2,19.2c7.3,5.7,15.2,10.8,22.8,16.1c0,1,0,1.9,0,2.9
              c-8.2-5.3-16.8-10.1-24.5-16c-12.3-9.5-25.1-17.5-40.7-19.9c-1.7-0.3-3.9-0.9-4.7-2.2c-8-12.3-15.3-24.9-9-39.7
              c4.1,0.6,7.9,1.5,11.7,1.6c10.3,0.2,16.8,4,19.1,14.2c3,13,11.6,17.7,23.4,18.5c3.2,0.2,6.5-1.6,9.8-2.5c3.3-1.3,6.7-1.9,9.8-3
              c4-1.4,8.4-2.5,11.8-4.9c2.9-2.1,5.5-5.6,6.7-9c1.4-4,1.4-8.6,1.4-13c0-4.3,0.9-10.1-1.5-12.7c-15.3-16.9-14-42.4-30.9-58.3
              c-0.3-0.3-0.5-0.9-0.5-1.4c-0.4-14.6-9.5-24.2-19.6-33c19.5-17.8,9.1-37.7-16.7-53.9c0,4.2,0,8.2,0,12.8
              c-16.3-17.2-27.4-22-39.9-18c4.5,4,9.3,8.3,14.2,12.7c-0.5,0.6-1,1.1-1.5,1.7c-7.8-3.6-15.3-8.6-23.5-10.4
              c-8.5-1.8-17.6-0.4-27.6-0.4c6.2,4.8,11.2,8.7,16.2,12.6c-19.8-1.4-37,3.4-54.6,12.8c6.8,2.3,12.4,4.2,18,6
              c-27,3.1-47.2,15.7-63.2,38.2c6.4,0.3,11.1,0.5,16.8,0.8c-17.2,15.4-29,33-31.5,46.5c5.2-1.2,10.3-2.4,13.7-3.2
              c-5,15.6-10,31.3-15,47c-0.9,0-1.9,0-2.8,0c3.7-13.9,7.5-27.9,11.2-41.7c-3.7,1.1-8,2.3-13.5,3.9c5.3-19.4,15.5-34.6,28.7-49.2
              c-5.2-0.3-9.1-0.5-14.1-0.7c13.5-20.9,30.6-35.5,55.6-42c-5.2-1.9-8.7-3.3-12.3-4.6c-0.1-0.9-0.2-1.8-0.3-2.6
              c17-5.4,34.1-10.8,50.5-16c-3.6-1.5-8.5-3.7-13.4-5.8c0.1-1,0.1-2,0.2-2.9c10.1-1.2,20.5-1.4,30.4-3.8c18-4.4,35.2-5.8,52.2,7.3
              c-0.9-4.5-1.5-7.3-2.4-12c8.6,6.7,16.1,11.8,22.8,17.9c17.9,16.2,19.4,26.7,8.9,45.1c9.8,17.9,18.9,34.6,28,51.3
              c0.6,1.1,0.7,2.5,1.1,3.7c2.1,6,3.7,12.3,6.5,18c3.8,7.7,8.5,14.8,12.8,22.2C291.9,210.3,291.8,215.6,291.8,220.8z M214.1,58.2
              c-0.1,0.1-0.2,0.3-0.2,0.5c0.3,0,0.7,0,1-0.1c-0.1-0.2-0.2-0.3-0.3-0.5C214.4,58.2,214.2,58.2,214.1,58.2z"/>
              <path fill="#E7130D" d="M291.8,220.8c-0.2,3.4-0.3,6.7-0.6,10.1c-0.5,6.7-3.8,10.6-10.7,12.3c-7,1.7-14,4.3-20.4,7.8
                c-10.5,5.8-30.5-0.6-34.6-11.8c-0.6-1.7-1.1-3.5-1.6-5.2c-3.4-10.5-7.3-13.4-18.5-13.6c-2.3,0-4.6-0.2-6.9-0.3
                c-5.3,13.3,3.6,31.7,16.9,35c13.7,3.4,25.2,10.6,36.2,19.2c7.3,5.7,15.2,10.8,22.8,16.1c3.9,1.9,5.9,0.1,7.8-3.4
                c8.2-15,11.7-31.2,12-48.2c0.1-5.9,0.1-11.8,0.1-17.8C293.4,221,292.6,220.9,291.8,220.8z"/>
                <path fill="#E7130D" d="M28.1,78.3c0-3.4,2.4-7.8,5.1-10.1c15.1-12.6,30.6-24.9,46.3-36.9c3-2.3,7.4-3.8,11.2-3.8
                  c46.7-0.3,93.5-0.3,140.2,0c4,0,8.6,1.8,11.8,4.2c15.5,11.8,30.4,24.3,45.9,36.1c4.2,3.2,5.7,6.6,5.6,11.7
                  c-0.2,41.8-0.1,83.6-0.1,125.4h0c0,5.3,0,10.7,0,16c-0.8-0.1-1.6-0.1-2.4-0.2c0.1-5.3,0.1-10.5,0.2-15.8
                  c-4.3-7.4-9-14.6-12.8-22.2c-2.8-5.7-4.4-12-6.5-18c-0.4-1.2-0.5-2.6-1.1-3.7c-9.1-16.7-18.2-33.5-28-51.3
                  c10.5-18.3,9-28.8-8.9-45.1c-6.7-6-14.2-11.2-22.8-17.9c1,4.7,1.5,7.5,2.4,12c-17-13.2-34.2-11.7-52.2-7.3
                  c-9.9,2.4-20.2,2.6-30.4,3.8c-0.1,1-0.1,2-0.2,2.9c4.9,2.1,9.9,4.3,13.4,5.8c-16.4,5.2-33.5,10.6-50.5,16c0.1,0.9,0.2,1.8,0.3,2.6
                  c3.6,1.4,7.2,2.7,12.3,4.6c-25,6.5-42.1,21-55.6,42c5,0.3,8.9,0.5,14.1,0.7c-13.2,14.5-23.4,29.8-28.7,49.2
                  c5.5-1.6,9.8-2.8,13.5-3.9c-3.7,13.8-7.5,27.8-11.2,41.7c-0.7,13.6-1.3,27.3-2,41.8c4.3-1.5,6.5-2.3,9.5-3.3
                  c-3.1,9.1-5.9,17.3-9.2,26.8c-6.7-14-9.5-27.3-9.5-41.2C27.9,186.8,27.8,132.5,28.1,78.3z"/>
                  <path fill="#A0A4A7" d="M102.9,319.8c-11.9-7.8-20.7-18-21.1-32.9c-0.2-7.6,1.7-15.2,2.6-22.8c-0.5-2.9-1.7-6-1.3-8.8
                    c1.4-9.2,3-18.4,5.2-27.5c2.5-10.7,5.6-21.3,8.8-33.5c-7.1,1.5-12.7,2.7-19.8,4.2c9.5-19,21.6-34,37.5-47.7
                    c-7-1.4-12.4-2.5-18.9-3.8c13.3-15.4,28.8-26,45.9-34.2c1.7-0.8,4.1-0.3,6.1-0.4c2.9-1.4,5.7-2.9,8.5-4.3
                    c-3.2-9.9-6.2-19.1-9.3-28.8c4.9,0,9.6,0,14.4,0c-12.4-4.4-24.7-3.2-37.1,0c8.9,4.6,17.3,9,26.8,13.9c-15.7,1.8-29.6,2.3-43,5.1
                    c-13.5,2.8-25,10.4-36.1,20.7c12.1-1.7,22.9-3.3,33.7-4.8c0.2,0.8,0.5,1.6,0.7,2.3c-20.6,9.3-37.4,22.9-49.3,42.1
                    c0.5,0.5,0.9,1,1.4,1.5c8-2.9,16-5.9,24-8.8c0.3,0.7,0.7,1.5,1,2.2c-21.4,22.7-34,49.2-35.8,83c7-8.5,12.7-15.4,19.2-23.3
                    c0.2,2.6,0.4,4.2,0.3,5.7c-0.8,22.6-2.1,45.4,4.6,67.3c2.7,9,7.5,17.6,12.7,25.4c3.9,5.7,10.3,9.4,18.2,8.1L102.9,319.8z"/>
                    <path fill="#4A4D50" d="M224.6,166.8c-13.4,0.4-22.8-7.1-29.6-18.1c-0.4-0.7-0.7-1.4-1.1-2c-0.4-0.6-0.9-1.1-1.4-1.6
                      c-0.7,0.3-1.4,0.6-2.1,0.9c3.4,8.5,6.7,17.1,10.1,25.8c-11.6,0-17.7-9.1-24.4-17.1c-3.6-4.3-6.3-9.3-9.4-14
                      c5.7-9.1,11.5-18.1,17.9-28.2c-2.2-1.1-5.7-3-9.4-4.4c-9.8-3.7-14.8-11.6-18.7-20.6c0-0.1,1.5-0.9,2.3-1.3
                      c6.5,3.1,13,6.4,19.6,9.3c2.2,1,4.7,1.1,7.1,1.5c1.8,1.2,4.2,2.1,5.4,3.8c3.3,4.3,6,7.8,12.8,6.3c3.2-0.7,7.4,2.6,11.2,4.2
                      c7.5,6.2,15.8,11.7,22.4,18.8c3.4,3.7,3.9,10.1,5.8,15.3c0.8,2.2,1.5,4.9,3.1,6.5c6.1,5.9,9.9,12.5,12.3,21
                      c2.4,8.5,8.5,15.8,13.1,23.7c2.1,3.6,4.7,6.9,6.3,10.7c1,2.5,0.6,5.7,0.8,8.5c-1.4-1.8-2.7-3.6-4.2-5.4c-6.2,3.2-5.1,9.2-5,14.7
                      l0.1-0.1c-9.4-5.5-3-11.8-1.6-14.9c-2.9-4.9-5-7.7-6.2-10.8c-1.1-2.8-0.9-6.2-1.8-9.1c-3.3-10.2-7.4-19.9-17.3-28.9
                      c1.5,6.1,2.5,10,3.5,13.8C240.4,168.5,233.3,166.5,224.6,166.8z M230.6,159c4.7-1.5,6.5-3.7,3.1-8.4c-3.7-5.1-8.1-8.2-14.7-8.5
                      c-5.2-0.3-10.3-1.6-15.7-2.6C207.2,156.8,216.9,163.5,230.6,159z"/>
                      <path fill="#2B2C2E" d="M158.9,145.5c0-2.2,0.1-4.4,0.1-6.6c-2.5,1.4-6,2.2-7.2,4.3c-5.3,9.4-11.1,18.8-14.6,28.9
                        c-13.1,36.9-10.8,74.5-3.7,112.2c2.5,13.1,5.6,26.1,8.4,39.2c8.1,8.4,15.3,17.9,27.9,19.9c9.1-10,9.6-13.9,3.6-26.1
                        c-7-14.1-11.5-28.7-11.7-44.7c-0.1-4.2-1.7-9.1-4.1-12.5c-14.2-19.6-23.5-41.1-18.5-65.4c3.4-16.5,10.9-32.1,16.7-48.1
                        C155.9,145.9,157.8,145.8,158.9,145.5z"/>
                        <path fill="#4A4D50" d="M141.8,323.4c-2.8-13.1-5.9-26.1-8.4-39.2c-7.1-37.6-9.4-75.3,3.7-112.2c3.6-10.1,9.3-19.5,14.6-28.9
                          c1.2-2.1,4.7-2.9,7.2-4.3c3.2-6.1,6.5-12.2,9.7-18.2c-7.1-5.7-11.2-3-16,2.5c-18.9,21.8-32,46.4-37.9,74.6
                          c-5.4,25.7-5.3,51.6,1.8,76.8c3.4,12,11,22.8,16.8,34C135.9,313.7,138.9,318.5,141.8,323.4z"/>
                          <path fill="#2B2C2E" d="M246.2,174.8c-5.8-6.4-12.9-8.3-21.6-8c-13.4,0.4-22.8-7.1-29.6-18.1c-0.4-0.7-0.7-1.4-1.1-2
                            c-0.4-0.6-0.9-1.1-1.4-1.6c-0.7,0.3-1.4,0.6-2.1,0.9c3.4,8.5,6.7,17.1,10.1,25.8c-11.6,0-17.7-9.1-24.4-17.1
                            c-3.6-4.3-6.3-9.3-9.4-14c-4.3,12.4-4.1,23.7,6.9,33.1c6,5.2,11.2,11.3,16.8,17c13.2,5.9,25.2,1.6,36.8-4.9c7.6-3,15-2.2,24.1,2.8
                            C249.2,182.5,247.7,178.7,246.2,174.8z"/>
                            <path fill="#FBF5F4" d="M148,112.5c-2.1,0.1-4.4-0.4-6.1,0.4c-17.2,8.2-32.6,18.8-45.9,34.2c6.4,1.3,11.8,2.4,18.9,3.8
                              c-15.8,13.7-28,28.7-37.5,47.7c7.1-1.5,12.7-2.7,19.8-4.2c-3.2,12.2-6.3,22.8-8.8,33.5c-2.1,9.1-3.8,18.2-5.2,27.5
                              c-0.4,2.8,0.8,5.8,1.3,8.8c10.9-22.3,18.4-45.5,19.2-70.5c0.1-2.1,0.4-4.1,0.5-6.2c0-0.8-0.1-1.5-0.2-2.7
                              c-2.9,0.5-5.7,0.9-8.9,1.4c11.8-14.8,23-29,34.3-43.3c-0.5-0.6-1-1.3-1.6-1.9c-5.1,0.5-10.2,1-15.7,1.5
                              C124.5,132.2,136.2,122.4,148,112.5z"/>
                              <path fill="#2B2C2E" d="M182.4,237.3c-0.6-7.4-1.2-14.8-1.9-22.2c0-0.2-0.4-0.4-0.4-0.6c2.3-16.4-14.6-22.5-18.7-35.5
                                c-9.3,24.4-10.2,48,6.4,69.6c2.4,3.1,6.4,4.9,9.6,7.3c3.1,0.4,5.3,0,5-4.1C182,246.9,182.3,242.1,182.4,237.3z"/>
                                <path fill="#EEE0DE" d="M158.9,145.5c-1.1,0.3-2.9,0.4-3.2,1.1c-5.8,16-13.4,31.6-16.7,48.1c-5,24.2,4.3,45.7,18.5,65.4
                                  c2.5,3.4,4.1,8.3,4.1,12.5c0.2,16,4.8,30.6,11.7,44.7c6,12.2,5.5,16-3.6,26.1c9.4-0.9,16.3-12.1,12-20.2
                                  c-9.3-17.2-15.5-35-14.8-54.9c0.1-2.2-1.5-4.8-2.9-6.7c-24.5-31.9-27.2-65.6-9-101.4C157.2,155.7,157.6,150.4,158.9,145.5z"/>
                                  <path fill="#A0A4A7" d="M235.4,82.2c-2.2-3.9-4.3-7.7-7.1-12.7c-1.7,7.6-2.9,13.5-4.6,21.4c-4.3-7.1-7-12.6-10.6-17.4
                                    c-3.6-4.7-8.1-8.8-13.4-14.5c0.7,9.2,1.1,16.1,1.7,23.7C189,75,177.7,68,166.4,60.9c-0.6,0.7-1.2,1.5-1.7,2.2
                                    c3.3,6.1,13.3,9.4,9.7,18.6c6.4,3.8,13.4,8,20.4,12.2c7.8-5.5,15.8-2.5,23.5-0.1c11.8,3.7,11.7,3.9,15.9-7.9
                                    C234.7,84.7,235.1,83.4,235.4,82.2z"/>
                                    <path fill="#2B2C2E" d="M189.5,317.5c14.7-3.1,25.2-17.2,26.6-33.5c-11.5-2.8-22.8-5.6-35.8-8.7
                                      C183.4,289.3,186.4,303.1,189.5,317.5z"/>
                                      <path fill="#4A4D50" d="M228.1,207.6c1.2-1.1,2.9-3.3,3.6-3c7.4,2.7,16.1,2.9,19.5,12.7c2.6,7.2,7.3,13.6,11.6,21.3
                                        c1.6-0.7,4.2-1.9,5-2.3c-3.6-10.2-6.8-19.4-10-28.6c-2.8-8.2-15.2-17.7-22.5-15.6c-5.7,1.6-10.7,6-16,9.1
                                        C222.4,203.4,225.3,205.5,228.1,207.6z"/>
                                        <path fill="#EEE0DE" d="M215.1,111.1c7.5,6.2,15.8,11.7,22.4,18.8c3.4,3.7,3.9,10.1,5.8,15.3c0.8,2.2,1.5,4.9,3.1,6.5
                                          c6.1,5.9,9.9,12.5,12.3,21c2.4,8.5,8.5,15.8,13.1,23.7c2.1,3.6,4.7,6.9,6.3,10.7c1,2.5,0.6,5.7,0.8,8.5c0,1.5,0,3.1,0,4.6
                                          c1-0.2,1.9-0.4,2.9-0.5c2.3-7.8,0.1-14.5-4.4-21.1c-4.4-6.3-8.4-13.1-12-19.9c-2.1-4-2.8-8.8-5-12.7c-3.1-5.5-7.3-10.4-10.6-15.8
                                          c-1.6-2.6-3-5.7-3.1-8.6C246.4,129.5,226.8,110.3,215.1,111.1z"/>
                                          <path fill="#FBF5F4" d="M235.4,82.2c-0.4,1.2-0.7,2.4-1.2,3.7c-4.2,11.7-4.1,11.5-15.9,7.9c-7.8-2.4-15.7-5.4-23.5,0.1
                                            c11.1,4.2,22.2,8.6,33.4,12.6c1.5,0.5,4.3-0.5,5.6-1.8C239.8,98.6,240.2,90.8,235.4,82.2z"/>
                                            <path fill="#2B2C2E" d="M228.1,207.6c-2.9-2.1-5.8-4.3-8.6-6.4c-8.5,3.3-0.9,7.6,0.5,8.4c9,4.8,10.6,13.9,13.6,22
                                              c2.5,6.7,6.5,10.5,14.2,10.3l0,0c-0.5-2.6-1-5.2-1.4-7.8c-2-0.8-5.2-1.1-5.8-2.5c-2.7-6-4.6-12.3-6.7-18.5
                                              c-0.8-0.8-1.6-1.6-2.4-2.4c-0.8-0.7-1.5-1.4-2.3-2.1C229,208.1,228.6,207.8,228.1,207.6z"/>
                                              <path fill="#EEE0DE" d="M227.4,185.7c-11.6,6.4-23.5,10.7-36.8,4.9c3.3,1.9,6.3,4.7,9.9,5.5C209.7,198.3,224.5,192.2,227.4,185.7z
                                                "/>
                                                <path fill="#4A4D50" d="M233.9,213.1c2.2,6.2,4.1,12.5,6.7,18.5c0.6,1.4,3.8,1.7,5.8,2.5C248.3,223.4,239.6,219.2,233.9,213.1z"/>
                                                <path fill="#EEE0DE" d="M159,86c6.5,3.1,13,6.4,19.6,9.3c2.2,1,4.7,1.1,7.1,1.5C178,90.2,169.8,85,159,86z"/>
                                                <path fill="#EEE0DE" d="M182.4,237.3c0,4.8-0.4,9.7-0.1,14.4c0.3,4.2-1.8,4.6-5,4.1c2.3,2.2,4.6,4.4,6.9,6.5
                                                  c0.9-0.3,1.8-0.7,2.8-1C185.4,253.4,183.9,245.3,182.4,237.3z"/>
                                                  <path fill="#4A4D50" d="M281.7,219.6c-1,0.2-1.9,0.4-2.9,0.5c-2.5,2.1-5.1,4.2-7.6,6.2l0.1-0.1c2.7,1.5,5.3,3,8,4.4
                                                    C280.1,227,280.9,223.3,281.7,219.6z"/>
                                                    <path fill="#2B2C2E" d="M247.8,241.9c0.6,0.8,1.3,1.6,1.9,2.4c0.2-0.2,0.3-0.3,0.5-0.5C249.5,243.2,248.7,242.5,247.8,241.9
                                                      L247.8,241.9z"/>
                                                      <path fill="#A0A4A7" d="M102.8,320c0.6,0.4,1.3,0.7,1.9,1.1c0.1-0.3,0.2-0.5,0.4-0.8c-0.7-0.2-1.4-0.3-2.1-0.5
                                                        C102.9,319.8,102.8,320,102.8,320z"/>
                                                        <path fill="#A0A4A7" d="M57.2,158.9c-0.2,1-0.5,2-0.7,3c0.7-0.5,1.4-1,2.1-1.5C58.2,159.9,57.7,159.4,57.2,158.9z"/>
                                                        <path fill="#4A4D50" d="M269.7,224.7c0.5,0.5,1,1,1.6,1.6c0,0-0.1,0.1-0.1,0.1C270.7,225.8,270.1,225.3,269.7,224.7L269.7,224.7z"
                                                          />
                                                          <path fill="#4A4D50" d="M229.1,208.6c0.8,0.7,1.5,1.4,2.3,2.1C230.7,210,229.9,209.3,229.1,208.6z"/>
                                                          <path fill="#E7130D" d="M214.6,58.2c-0.2,0-0.4,0-0.5,0c-0.1,0.1-0.2,0.3-0.2,0.5c0.3,0,0.7,0,1-0.1
                                                            C214.8,58.5,214.7,58.4,214.6,58.2z"/>
                                                            <path fill="#2B2C2E" d="M218.9,142c6.6,0.3,11,3.5,14.7,8.5c3.4,4.7,1.6,6.9-3.1,8.4c-13.7,4.5-23.4-2.2-27.4-19.5
                                                              C208.6,140.4,213.7,141.7,218.9,142z M211.3,145.3c-0.3,10.5,7.9,10.5,19.3,8.3C227,143.4,217.6,148.3,211.3,145.3z"/>
                                                              <path fill="#0A0A0A" d="M269.6,224.8c0.5,0.5,1,1,1.6,1.6c2.5-2.1,5.1-4.2,7.6-6.2c0-1.5,0-3.1,0-4.6c-1.4-1.8-2.7-3.6-4.2-5.4
                                                                C268.4,213.3,269.5,219.2,269.6,224.8z"/>
                                                                <path fill="#0A0A0A" d="M230.6,153.6c-3.6-10.2-13-5.3-19.3-8.3C211,155.8,219.2,155.8,230.6,153.6z"/>
                                                              </g>
                                                            </g>
                                                          </svg>
                                                          
